<?xml version="1.0" encoding="UTF-8"?><svg xmlns="http://www.w3.org/2000/svg" width="4960.68" height="3059.76" xmlns:xlink="http://www.w3.org/1999/xlink" viewBox="0 0 4960.68 3059.76"><defs><style>.cls-1,.cls-2{fill:none;}.cls-3{fill:#fff;}.cls-4{fill:#6532ca;}.cls-5{clip-path:url(#clippath-1);}.cls-6{isolation:isolate;}.cls-2{clip-path:url(#clippath);}.cls-7{mix-blend-mode:soft-light;opacity:.4;}</style><clipPath id="clippath"><path class="cls-1" d="M2420.31,2133.5c3.61-1.48,5.72-2.4,7.87-3.22,19.72-7.48,31.25-22.03,34.19-42.5,2.87-19.95,1.16-39.88-6.68-58.69-2.48-5.96-6.24-12.11-11.1-16.17-6.32-5.29-8.87-11.36-9.76-19.04-3.13-27.06-.48-53.72,4.23-80.4,3.61-20.44,15.16-33.82,33.92-41.4,11.93-4.82,24.28-8.66,36.07-13.78,11.05-4.8,22.62-9.34,32.18-16.4,24.59-18.15,33.79-43.09,27.51-73.21-3.42-16.38-11.72-30.68-21.42-43.93-32.6-44.54-59.42-92.67-87.65-139.92-21.04-35.21-40.23-71.41-56.21-109.27-22.15-52.46-34.3-106.87-33.55-164.02,.51-38.67,.41-77.35,.98-116.01,1.38-93.83-.36-187.42-15.3-280.4-10.67-66.42-29.68-130.03-59.62-190.3-46.05-92.71-110-171.49-188.95-237.78-177.41-148.96-384.12-225.02-613.49-243.21-55.39-4.39-110.8-3.33-166.18,1.71-64.76,5.89-128.59,16.94-190.46,36.88-156.21,50.35-297.12,128.4-420.05,237.56-89.93,79.86-160.28,174.67-211.4,283.65-53.49,114.04-82.26,234.68-94.84,359.43-4.27,42.32-6.22,84.89-8.43,127.39-3.55,68.2,1.43,135.74,16.68,202.49,18.83,82.39,50.01,160.04,88.74,234.86,44.83,86.6,98.85,167.37,156.33,245.93,4.36,5.95,8.27,12.32,11.64,18.89,76.45,149.23,114.37,308.14,118.91,475.37,2.69,99.07-5.29,197.53-19.38,295.45-11.39,79.19-24.54,158.14-37.4,237.12-13.62,83.65-25.84,167.46-31.27,252.11-.27,4.28-1.02,8.72-.22,12.82,.45,2.3,3.29,4.81,5.66,5.86,2.3,1.02,5.37,.35,8.1,.35,357.81,0,715.63,0,1073.44-.02,3.8,0,7.59-.34,12.11-.56,.18-4.11,.53-7.54,.46-10.95-2.18-101.15-4.02-202.31-6.8-303.45-1.17-42.34,1.29-84.31,7.79-126.07,5.36-34.44,13.89-68.03,28.19-100,27.5-61.46,74.1-99.11,140.02-112.93,29.16-6.11,58.68-8.36,88.38-9.52,40.57-1.58,81.26-1.16,121.59-6.83,32.66-4.59,64.42-12.27,93.66-28.19,39.5-21.5,63.46-54.36,72.18-98.54,5.83-29.53,4.91-59.05,.71-88.6-3.59-25.25-5.44-50.48-1.06-75.81,3.87-22.4,12.16-42.79,27.86-59.59,2.8-2.99,6.53-6.29,10.29-6.98,12.62-2.31,20.88-10.16,27.8-19.89,9.48-13.33,14.21-28.49,16.52-44.58,2.38-16.61,.4-31.98-12.81-45.74Z"/></clipPath><clipPath id="clippath-1"><path class="cls-2" d="M2420.31,2133.5c13.21,13.76,15.19,29.13,12.81,45.74-2.31,16.09-7.03,31.25-16.52,44.58-6.92,9.73-15.18,17.58-27.8,19.89-3.75,.69-7.49,3.99-10.29,6.98-15.7,16.8-23.99,37.19-27.86,59.59-4.38,25.34-2.53,50.57,1.06,75.81,4.2,29.55,5.12,59.06-.71,88.6-8.72,44.18-32.69,77.04-72.18,98.54-29.24,15.92-61.01,23.6-93.66,28.19-40.33,5.67-81.03,5.25-121.59,6.83-29.7,1.16-59.23,3.41-88.38,9.52-65.92,13.82-112.52,51.47-140.02,112.93-14.3,31.96-22.83,65.55-28.19,100-6.5,41.77-8.96,83.73-7.79,126.07,2.79,101.14,4.62,202.3,6.8,303.45,.07,3.42-.28,6.84-.46,10.95-4.51,.22-8.31,.56-12.11,.56-357.81,.02-715.63,.02-1073.44,.02-2.73,0-5.81,.67-8.1-.35-2.37-1.05-5.21-3.56-5.66-5.86-.8-4.11-.05-8.54,.22-12.82,5.43-84.66,17.65-168.46,31.27-252.11,12.86-78.98,26-157.92,37.4-237.12,14.09-97.92,22.07-196.38,19.38-295.45-4.53-167.22-42.45-326.13-118.91-475.37-3.36-6.57-7.28-12.94-11.64-18.89-57.48-78.57-111.51-159.33-156.33-245.93-38.73-74.82-69.9-152.47-88.74-234.86-15.26-66.75-20.23-134.29-16.68-202.49,2.21-42.5,4.16-85.07,8.43-127.39,12.58-124.75,41.35-245.4,94.84-359.43,51.12-108.98,121.48-203.79,211.4-283.65,122.93-109.17,263.84-187.22,420.05-237.56,61.86-19.94,125.7-30.99,190.46-36.88,55.38-5.04,110.79-6.11,166.18-1.71,229.36,18.19,436.08,94.24,613.49,243.21,78.95,66.29,142.9,145.07,188.95,237.78,29.94,60.27,48.95,123.88,59.62,190.3,14.94,92.98,16.67,186.58,15.3,280.4-.57,38.67-.47,77.34-.98,116.01-.76,57.14,11.4,111.56,33.55,164.02,15.98,37.86,35.18,74.06,56.21,109.27,28.23,47.25,55.06,95.38,87.65,139.92,9.7,13.25,18,27.55,21.42,43.93,6.28,30.12-2.92,55.05-27.51,73.21-9.56,7.06-21.14,11.61-32.18,16.4-11.79,5.12-24.14,8.96-36.07,13.78-18.76,7.58-30.31,20.96-33.92,41.4-4.71,26.67-7.36,53.34-4.23,80.4,.89,7.68,3.44,13.74,9.76,19.04,4.85,4.06,8.61,10.21,11.1,16.17,7.84,18.81,9.56,38.74,6.68,58.69-2.95,20.46-14.48,35.02-34.19,42.5-2.15,.82-4.26,1.74-7.87,3.22Z"/></clipPath></defs><g class="cls-6"><g id="Layer_1"><image width="4961" height="3063" transform="translate(-.06 -1.32)" xlink:href="nologo1.png"/><g class="cls-5"><image width="20671" height="12758" transform="translate(-.13 -2.16) scale(.24)" xlink:href="nologo2.png"/></g><path class="cls-3" d="M2021.39,1301.16c1,0,1-1,2-1-1,0-1,1-2,1h0Z"/><path class="cls-4" d="M2070.6,1558.92c-12.54,43.36-19.71,49.31-33.35,91.13-12.94,39.68-8.54,40.63-20.51,71.77-5.4,14.05-7.83,17.85-33.55,68.03-33.07,64.53-34.07,68.03-41.94,78.29-17.63,22.97-32.28,31.03-67.1,55.92-87.95,62.87-73.91,68.3-129.55,102.52-62.44,38.4-85.64,34.96-105.31,68.03-12.58,21.14-10.26,34.58-15.02,90.11-7.59,88.49-16.06,84.66-22.53,163.34-3.68,44.63-7.61,92.4-1.88,148.32,7.38,72.08,24.85,99.51,47.45,172.56,1.68,5.43,3.39,11.1,5.12,17.07,21.17,72.85,9.68,62.88,41.3,232.8,10.79,57.98,19.2,103.5,26.64,141.97h-566.59c1.23-42.58,1.62-71.94,8.81-138.48,4.57-42.27,4.06-26.63,24.05-169.08,4.56-32.47,8.38-60.31,11.61-84.28,20.19-149.97,17.29-148.48,27.19-180.69,23.33-76,45.15-102.81,33.43-150.65-5.68-23.18-12.4-23.4-46.15-109.2-9.45-24.03-12.26-32.49-19.14-33.64-28.21-4.68-70.85,122.56-82.06,156.01-4.67,13.94-22.32,67.62-37.31,145.34-15.2,78.8-24.57,127.36-22.66,172.83,.57,13.79,2.18,27.28,4.98,41.25,5.35,26.7,9.05,53.7,13.75,80.52,8.01,45.7,11.68,64.58,1.96,86.42-2.78,6.25-13.1,29.44-37.31,37.32-1.37,.44-20.13,6.25-39.28-1.97-33.72-14.46-42.32-61.09-45.18-76.6-7.64-41.45,3.43-60.06,26.25-166.94,.41-1.93,.83-3.9,1.25-5.89,8.57-40.59,12.85-60.89,15.71-84.45,3.35-27.58,4.9-57.39,7.86-115.88,2.48-49.05,2.03-51.74,4.37-63.94,7.56-39.34,21.15-57.65,33.57-86.99,19.05-44.99,6.91-48.82,24.42-129.71,14.71-68,33.46-112.28,48.83-148.03,27.6-64.19,43.61-80.07,57.99-90.04,19.83-13.74,43.7-21.2,68.68-29,44.07-13.76,67.67-13.01,77.83-32.04,5.24-9.82,6.51-24.16,0-33.58-10.62-15.36-32.68-4.24-62.57-13.73-39.59-12.57-74.37-55.42-71.73-90.04,.94-12.22,5.87-14.76,9.16-39.68,3.89-29.52-1.13-40.39-4.58-45.78-5.91-9.25-10.84-8.1-16.79-15.26-18.25-21.99-6.2-74.23,24.42-103.78,3.22-3.1,14.91-10.25,38.15-24.41,31.98-19.49,47.97-29.23,62.57-36.63,35.68-18.06,55.52-27.78,80.89-24.42,5.39,.72,29.72,3.95,35.1,18.32,3.53,9.46-4.18,15.64,0,25.94,2.79,6.88,7.95,8.35,27.46,19.84,18.45,10.86,27.74,16.39,30.53,21.36,8.35,14.91-4.21,25.56,4.57,38.16,8.92,12.78,31.94,16.3,35.1,16.78,9.14,1.4,14.29,.23,18.32,4.58,5.09,5.51,3.87,14.98,3.05,21.37-1.71,13.26-6.94,16.47-4.58,22.89,2.26,6.14,7.76,5.16,13.74,12.21,4.96,5.85,5.3,11.41,7.63,25.94,4.95,30.94,6.95,27.79,6.1,33.57-3.77,25.8-36.41,40.45-38.15,41.21-17.29,7.5-23.63,1.9-35.1,10.68-11.9,9.1-15.32,22.96-18.31,35.1-2.93,11.84-8.94,36.23,3.05,56.46,7.03,11.87,17.66,17.93,41.2,27.47,40.73,16.51,62.51,25.34,91.57,29,93,11.7,174.32-40.45,189.23-50.36,55.91-37.17,85.1-83.33,132.77-158.71,26.59-42.06,19.66-40.42,56.46-100.72,11.72-19.2,25-39.99,33.58-71.73,4.98-18.46,9.15-33.87,6.1-53.41-4.83-31.04-21.71-32.99-30.52-67.15-2.62-10.15-9.59-37.15,1.53-64.1,5.49-13.32,28.04-41.58,34.25-48.75-.5,.57-.87,1.14-.68,1.45,.69,1.11,6.91-3.57,12.84-2.22,4.96,1.13,8.74,7.77,8.74,7.77,0,0,2.65,13.68,7.66,14.74,4.57,.96,7.05-9.43,14.72-10.31,5.11-.58,11.71,3.14,13.25,8.1,2.69,8.68-11.91,15.4-22.82,34.6-.99,1.74-9.06,16.25-10.3,33.12-1.35,18.17,6.27,24.95,19.14,58.16,9.37,24.18,15.02,38.78,16.19,57.42,.48,7.7,.44,19.88-9.57,54.48Z"/><image class="cls-7" width="4961" height="3061" transform="translate(-.06 -.62)" xlink:href="nologo3.png"/></g></g></svg>