<svg width="152" height="152" viewBox="0 0 152 152" fill="none" xmlns="http://www.w3.org/2000/svg">
<path d="M89.3544 120.08C101.288 115.897 111.387 107.68 117.909 96.8458C121.316 101.675 126.021 105.439 131.48 107.703C133.13 108.402 134.928 108.681 136.712 108.517C138.497 108.352 140.212 107.748 141.707 106.759C143.201 105.77 144.427 104.427 145.276 102.848C146.125 101.27 146.57 99.5064 146.572 97.7144V69.3772C146.57 67.5852 146.125 65.8214 145.276 64.2432C144.427 62.665 143.201 61.3214 141.707 60.3324C140.212 59.3433 138.497 58.7395 136.712 58.5749C134.928 58.4102 133.13 58.6898 131.48 59.3886C126.006 61.6262 121.293 65.3961 117.909 70.2458C107.052 53.3086 77.5201 40.1715 47.8801 40.1715C36.5324 40.4269 25.7355 45.1149 17.8013 53.2318C9.86696 61.3487 5.42584 72.2494 5.42871 83.6001C6.12932 94.9479 11.2521 105.569 19.6969 113.181C28.1417 120.793 39.235 124.791 50.5944 124.314C53.8516 124.314 59.063 124.314 62.3201 124.314" stroke="black" stroke-width="1.71429" stroke-linecap="round" stroke-linejoin="round"/>
<path d="M43.4286 78.063C46.4267 78.063 48.8571 75.6325 48.8571 72.6344C48.8571 69.6363 46.4267 67.2058 43.4286 67.2058C40.4305 67.2058 38 69.6363 38 72.6344C38 75.6325 40.4305 78.063 43.4286 78.063Z" stroke="black" stroke-width="1.71429" stroke-linecap="round" stroke-linejoin="round"/>
<path d="M35.0684 42.0172C43.4284 29.0972 63.0798 14.5486 106.617 19.5429C102.005 32.0513 102.005 45.7944 106.617 58.3029" stroke="black" stroke-width="1.71429" stroke-linecap="round" stroke-linejoin="round"/>
<path d="M50.377 103.469C52.3266 113.115 57.9425 121.628 66.0426 127.218C74.1428 132.807 84.0954 135.035 93.8055 133.434L82.8398 97.7144" stroke="black" stroke-width="1.71429" stroke-linecap="round" stroke-linejoin="round"/>
</svg>
