<?xml version="1.0" encoding="UTF-8"?><svg id="Layer_2" xmlns="http://www.w3.org/2000/svg" width="443.96" height="578.96" viewBox="0 0 443.96 578.96"><defs><style>.cls-1{fill:#6532ca;}.cls-2{fill:#48279b;}</style></defs><g id="Layer_1-2"><g><path class="cls-2" d="M413.19,387.24c.74-.3,1.17-.49,1.61-.66,4.03-1.53,6.39-4.51,7-8.7,.59-4.08,.24-8.16-1.37-12.01-.51-1.22-1.28-2.48-2.27-3.31-1.29-1.08-1.82-2.32-2-3.9-.64-5.54-.1-10.99,.87-16.45,.74-4.18,3.1-6.92,6.94-8.47,2.44-.99,4.97-1.77,7.38-2.82,2.26-.98,4.63-1.91,6.59-3.36,5.03-3.71,6.91-8.82,5.63-14.98-.7-3.35-2.4-6.28-4.38-8.99-6.67-9.11-12.16-18.96-17.94-28.63-4.31-7.21-8.23-14.61-11.5-22.36-4.53-10.73-7.02-21.87-6.86-33.56,.1-7.91,.08-15.83,.2-23.74,.28-19.2-.07-38.35-3.13-57.38-2.18-13.59-6.07-26.61-12.2-38.94-9.42-18.97-22.51-35.09-38.66-48.66C312.78,19.85,270.48,4.29,223.55,.56c-11.33-.9-22.67-.68-34.01,.35-13.25,1.21-26.31,3.47-38.97,7.55-31.96,10.3-60.8,26.27-85.95,48.61-18.4,16.34-32.8,35.74-43.26,58.04C10.41,138.45,4.52,163.14,1.95,188.67c-.87,8.66-1.27,17.37-1.72,26.07-.73,13.96,.29,27.78,3.41,41.44,3.85,16.86,10.23,32.75,18.16,48.06,9.17,17.72,20.23,34.25,31.99,50.33,.89,1.22,1.69,2.52,2.38,3.87,15.64,30.54,23.4,63.06,24.33,97.27,.55,20.27-1.08,40.42-3.97,60.46-2.33,16.21-5.02,32.36-7.65,48.52-2.79,17.12-5.29-6.98-6.4,10.35-.06,.88-.21,1.78-.05,2.62,.09,.47,.67,.98,1.16,1.2,.47,.21,1.1,.07,1.66,.07,73.22,0,146.44,0,219.66,0,.78,0,1.55-.07,2.48-.12,.04-.84,.11-1.54,.09-2.24-.45-20.7-.82-.16-1.39-20.85-.24-8.66,.26-17.25,1.59-25.8,1.1-7.05,2.84-13.92,5.77-20.46,5.63-12.58,15.16-20.28,28.65-23.11,5.97-1.25,12.01-1.71,18.09-1.95,8.3-.32,16.63-.24,24.88-1.4,6.68-.94,13.18-2.51,19.17-5.77,8.08-4.4,12.99-11.12,14.77-20.16,1.19-6.04,1-12.08,.15-18.13-.73-5.17-1.11-10.33-.22-15.51,.79-4.58,2.49-8.76,5.7-12.19,.57-.61,1.34-1.29,2.11-1.43,2.58-.47,4.27-2.08,5.69-4.07,1.94-2.73,2.91-5.83,3.38-9.12,.49-3.4,.08-6.54-2.62-9.36Z"/><path class="cls-2" d="M413.19,387.24c2.7,2.82,3.11,5.96,2.62,9.36-.47,3.29-1.44,6.39-3.38,9.12-1.42,1.99-3.11,3.6-5.69,4.07-.77,.14-1.53,.82-2.11,1.43-3.21,3.44-4.91,7.61-5.7,12.19-.9,5.18-.52,10.35,.22,15.51,.86,6.05,1.05,12.09-.15,18.13-1.78,9.04-6.69,15.76-14.77,20.16-5.98,3.26-12.48,4.83-19.17,5.77-8.25,1.16-16.58,1.07-24.88,1.4-6.08,.24-12.12,.7-18.09,1.95-13.49,2.83-23.03,10.53-28.65,23.11-2.93,6.54-4.67,13.41-5.77,20.46-1.33,8.55-1.83,17.13-1.59,25.8,.57,20.7,.95,.15,1.39,20.85,.02,.7-.06,1.4-.09,2.24-.92,.04-1.7,.12-2.48,.12-73.22,0-146.44,0-219.66,0-.56,0-1.19,.14-1.66-.07-.48-.22-1.07-.73-1.16-1.2-.16-.84-.01-1.75,.05-2.62,1.11-17.32,3.61-2.77,6.4-19.89,2.63-16.16,5.32-22.77,7.65-38.98,2.88-20.04,4.52-40.19,3.97-60.46-.93-34.22-8.69-66.74-24.33-97.27-.69-1.34-1.49-2.65-2.38-3.87-11.76-16.08-22.82-32.6-31.99-50.33-7.92-15.31-14.3-31.2-18.16-48.06C.52,242.51-.5,228.69,.22,214.74c.45-8.7,.85-17.41,1.72-26.07,2.57-25.53,8.46-50.22,19.41-73.55,10.46-22.3,24.86-41.7,43.26-58.04,25.16-22.34,53.99-38.31,85.95-48.61,12.66-4.08,25.72-6.34,38.97-7.55,11.33-1.03,22.67-1.25,34.01-.35,46.93,3.72,89.23,19.28,125.54,49.77,16.16,13.57,29.24,29.69,38.66,48.66,6.13,12.33,10.02,25.35,12.2,38.94,3.06,19.03,3.41,38.18,3.13,57.38-.12,7.91-.1,15.83-.2,23.74-.15,11.69,2.33,22.83,6.86,33.56,3.27,7.75,7.2,15.15,11.5,22.36,5.78,9.67,11.27,19.52,17.94,28.63,1.98,2.71,3.68,5.64,4.38,8.99,1.29,6.16-.6,11.27-5.63,14.98-1.96,1.45-4.33,2.37-6.59,3.36-2.41,1.05-4.94,1.83-7.38,2.82-3.84,1.55-6.2,4.29-6.94,8.47-.96,5.46-1.51,10.92-.87,16.45,.18,1.57,.7,2.81,2,3.9,.99,.83,1.76,2.09,2.27,3.31,1.6,3.85,1.96,7.93,1.37,12.01-.6,4.19-2.96,7.17-7,8.7-.44,.17-.87,.36-1.61,.66Z"/></g><path class="cls-1" d="M341.63,269.67c-2.57,8.87-4.03,10.09-6.82,18.65-2.65,8.12-1.75,8.31-4.2,14.69-1.1,2.88-1.6,3.65-6.87,13.92-6.77,13.2-6.97,13.92-8.58,16.02-3.61,4.7-6.61,6.35-13.73,11.44-18,12.87-15.12,13.98-26.51,20.98-12.78,7.86-17.52,7.15-21.55,13.92-2.57,4.33-2.1,7.08-3.07,18.44-1.55,18.11-3.29,17.32-4.61,33.42-.75,9.13-1.56,18.91-.38,30.35,1.51,14.75,5.09,20.36,9.71,35.31,.34,1.11,.69,2.27,1.05,3.49,4.33,14.91,1.98,12.87,8.45,47.64,2.21,11.86,3.93,21.18,5.45,29.05h-115.94c.25-8.71,.33-14.72,1.8-28.34,.94-8.65,.83-5.45,4.92-34.6,.93-6.64,1.71-12.34,2.38-17.25,4.13-30.69,3.54-30.38,5.56-36.97,4.77-15.55,9.24-21.04,6.84-30.83-1.16-4.74-2.54-4.79-9.44-22.35-1.93-4.92-2.51-6.65-3.92-6.88-5.77-.96-14.5,25.08-16.79,31.92-.96,2.85-4.57,13.84-7.63,29.74-3.11,16.12-5.03,26.06-4.64,35.37,.12,2.82,.45,5.58,1.02,8.44,1.09,5.46,1.85,10.99,2.81,16.48,1.64,9.35,2.39,13.22,.4,17.68-.57,1.28-2.68,6.02-7.63,7.64-.28,.09-4.12,1.28-8.04-.4-6.9-2.96-8.66-12.5-9.25-15.67-1.56-8.48,.7-12.29,5.37-34.16,.08-.39,.17-.8,.26-1.21,1.75-8.31,2.63-12.46,3.21-17.28,.69-5.64,1-11.74,1.61-23.71,.51-10.04,.42-10.59,.89-13.08,1.55-8.05,4.33-11.8,6.87-17.8,3.9-9.21,1.41-9.99,5-26.54,3.01-13.91,6.85-22.98,9.99-30.29,5.65-13.14,8.92-16.38,11.87-18.42,4.06-2.81,8.94-4.34,14.05-5.93,9.02-2.82,13.85-2.66,15.93-6.56,1.07-2.01,1.33-4.94,0-6.87-2.17-3.14-6.69-.87-12.8-2.81-8.1-2.57-15.22-11.34-14.68-18.42,.19-2.5,1.2-3.02,1.87-8.12,.8-6.04-.23-8.26-.94-9.37-1.21-1.89-2.22-1.66-3.44-3.12-3.73-4.5-1.27-15.19,5-21.24,.66-.63,3.05-2.1,7.81-5,6.54-3.99,9.82-5.98,12.8-7.5,7.3-3.7,11.36-5.68,16.55-5,1.1,.15,6.08,.81,7.18,3.75,.72,1.94-.86,3.2,0,5.31,.57,1.41,1.63,1.71,5.62,4.06,3.78,2.22,5.68,3.35,6.25,4.37,1.71,3.05-.86,5.23,.94,7.81,1.83,2.62,6.54,3.34,7.18,3.43,1.87,.29,2.92,.05,3.75,.94,1.04,1.13,.79,3.07,.62,4.37-.35,2.71-1.42,3.37-.94,4.68,.46,1.26,1.59,1.06,2.81,2.5,1.01,1.2,1.08,2.33,1.56,5.31,1.01,6.33,1.42,5.69,1.25,6.87-.77,5.28-7.45,8.28-7.81,8.43-3.54,1.53-4.84,.39-7.18,2.19-2.44,1.86-3.13,4.7-3.75,7.18-.6,2.42-1.83,7.41,.62,11.55,1.44,2.43,3.61,3.67,8.43,5.62,8.33,3.38,12.79,5.19,18.74,5.93,19.03,2.39,35.67-8.28,38.72-10.31,11.44-7.61,17.41-17.05,27.17-32.48,5.44-8.61,4.02-8.27,11.55-20.61,2.4-3.93,5.12-8.18,6.87-14.68,1.02-3.78,1.87-6.93,1.25-10.93-.99-6.35-4.44-6.75-6.25-13.74-.54-2.08-1.96-7.6,.31-13.12,1.12-2.73,5.74-8.51,7.01-9.98-.1,.12-.18,.23-.14,.3,.14,.23,1.41-.73,2.63-.45,1.01,.23,1.79,1.59,1.79,1.59,0,0,.54,2.8,1.57,3.02,.94,.2,1.44-1.93,3.01-2.11,1.05-.12,2.4,.64,2.71,1.66,.55,1.78-2.44,3.15-4.67,7.08-.2,.36-1.85,3.33-2.11,6.78-.28,3.72,1.28,5.11,3.92,11.9,1.92,4.95,3.07,7.94,3.31,11.75,.1,1.58,.09,4.07-1.96,11.15Z"/></g></svg>