<svg xmlns="http://www.w3.org/2000/svg" width="443.96" height="563.63" xmlns:v="https://vecta.io/nano"><g fill="#48279b"><path d="M443.57 312.59c-.69-3.35-2.39-6.28-4.38-8.99-6.67-9.12-12.16-18.97-17.93-28.63-4.31-7.21-8.24-14.62-11.51-22.36-4.53-10.74-7.02-21.87-6.86-33.57l.2-23.74c.28-19.2-.08-38.35-3.13-57.38-2.19-13.59-6.08-26.6-12.2-38.94-9.43-18.97-22.51-35.09-38.67-48.66-36.3-30.48-78.6-46.04-125.54-49.76-11.33-.9-22.67-.68-34 .35-13.25 1.2-26.32 3.47-38.97 7.55-31.97 10.3-60.8 26.27-85.96 48.61-18.4 16.34-32.8 35.74-43.26 58.04-10.95 23.34-16.83 48.02-19.41 73.55-.87 8.66-1.27 17.37-1.72 26.07-.73 13.96.29 27.78 3.41 41.44 3.86 16.86 10.24 32.75 18.16 48.06 9.17 17.72 20.23 34.24 31.99 50.32.89 1.22 1.7 2.52 2.38 3.87 15.65 30.53 23.41 63.05 24.34 97.27.55 20.27-1.09 40.42-3.97 60.46l-.22 1.49-.21 1.4-6.33 40.16-.72 4.43h217.35c-.1-1.52-.2-3.97-.31-7.93-.24-8.66.26-17.25 1.59-25.8 1.1-7.04 2.84-13.92 5.77-20.46 5.62-12.58 15.16-20.28 28.65-23.11 5.97-1.25 12.01-1.71 18.09-1.95 8.3-.32 16.62-.23 24.88-1.39 6.68-.94 13.18-2.51 19.16-5.77 8.09-4.4 12.99-11.13 14.77-20.17 1.2-6.04 1.01-12.08.15-18.13-.73-5.16-1.11-10.32-.22-15.51.8-4.58 2.49-8.76 5.71-12.19.57-.62 1.33-1.29 2.1-1.43 2.58-.47 4.27-2.08 5.69-4.07 1.94-2.73 2.91-5.83 3.38-9.12.49-3.4.08-6.55-2.62-9.36l1.61-.66c4.03-1.53 6.39-4.51 7-8.7.58-4.08.23-8.16-1.37-12.01-.51-1.22-1.28-2.48-2.27-3.31-1.29-1.08-1.82-2.32-2-3.89-.64-5.54-.1-11 .87-16.45.74-4.19 3.1-6.93 6.94-8.48 2.44-.98 4.97-1.77 7.38-2.82 2.26-.98 4.63-1.91 6.59-3.35 5.03-3.72 6.91-8.82 5.62-14.98z"/><path d="M437.95 327.57c-1.96 1.44-4.33 2.37-6.59 3.35l-7.38 2.82c-3.84 1.55-6.2 4.29-6.94 8.48-.97 5.45-1.51 10.91-.87 16.45.18 1.57.71 2.81 2 3.89.99.83 1.76 2.09 2.27 3.31 1.6 3.85 1.95 7.93 1.37 12.01-.61 4.19-2.97 7.17-7 8.7-.44.17-.87.35-1.61.66 2.7 2.81 3.11 5.96 2.62 9.36-.47 3.29-1.44 6.39-3.38 9.12-1.42 1.99-3.11 3.6-5.69 4.07-.77.14-1.53.81-2.1 1.43-3.22 3.43-4.91 7.61-5.71 12.19-.89 5.19-.51 10.35.22 15.51.86 6.05 1.05 12.09-.15 18.13-1.78 9.04-6.68 15.77-14.77 20.17-5.98 3.26-12.48 4.83-19.16 5.77-8.26 1.16-16.58 1.07-24.88 1.39-6.08.24-12.12.7-18.09 1.95-13.49 2.83-23.03 10.53-28.65 23.11-2.93 6.54-4.67 13.42-5.77 20.46-1.33 8.55-1.83 17.14-1.59 25.8l.31 7.93H66.53c.51-.8 1.04-2.1 1.58-4.43a64.47 64.47 0 0 0 .78-4.07c2.47-15.17 4.99-21.93 7.22-36.09l.21-1.4.22-1.49c2.88-20.04 4.52-40.19 3.97-60.46-.93-34.22-8.69-66.74-24.34-97.27-.68-1.35-1.49-2.65-2.38-3.87-11.76-16.08-22.82-32.6-31.99-50.32-7.92-15.31-14.3-31.2-18.16-48.06C.52 242.51-.5 228.69.23 214.73c.45-8.7.85-17.41 1.72-26.07 2.58-25.53 8.46-50.21 19.41-73.55 10.46-22.3 24.86-41.7 43.26-58.04 25.16-22.34 53.99-38.31 85.96-48.61 12.65-4.08 25.72-6.35 38.97-7.55 11.33-1.03 22.67-1.25 34-.35 46.94 3.72 89.24 19.28 125.54 49.76 16.16 13.57 29.24 29.69 38.67 48.66 6.12 12.34 10.01 25.35 12.2 38.94 3.05 19.03 3.41 38.18 3.13 57.38l-.2 23.74c-.16 11.7 2.33 22.83 6.86 33.57 3.27 7.74 7.2 15.15 11.51 22.36 5.77 9.66 11.26 19.51 17.93 28.63 1.99 2.71 3.69 5.64 4.38 8.99 1.29 6.16-.59 11.26-5.62 14.98z" opacity=".18"/></g><path d="M341.64 269.66c-4.17 11.65-8.1 22.13-11.02 33.34-1.11 2.87-1.61 3.65-6.87 13.92-6.77 13.2-6.97 13.92-8.58 16.02-3.61 4.7-6.61 6.35-13.73 11.44-18 12.86-15.13 13.98-26.51 20.98-21.45 12.15-23.53 8.11-24.63 32.36-5.42 36.01-10.48 64.12 4.72 99.08 3.41 10.12 7.91 42.74 12.3 66.83H154.7c2.4-29.7 10.77-86.87 13.99-103.8 4.77-15.55 9.24-21.04 6.84-30.83-1.16-4.74-2.54-4.79-9.44-22.34-1.94-4.92-2.51-6.65-3.92-6.89-11.75 6.03-19.43 40.27-24.43 61.67-6.02 26.66-5.46 37.63-.8 60.28 8.86 27.89-20.61 36.53-24.52 9.25-3.11-4.89 7.72-39.68 8.85-52.65.55-3.29 1.87-31.79 2.5-36.8 1.55-8.05 4.33-11.79 6.87-17.8 3.9-9.21 1.41-9.99 4.99-26.54 4.41-18.73 12.51-41.48 21.86-48.72 6.81-6 26.66-6.78 29.98-12.49 1.08-2.01 1.34-4.94 0-6.87-2.17-3.14-6.68-.87-12.8-2.81-8.1-2.57-15.22-11.34-14.68-18.42 1.06-3 3.57-15.43.94-17.49-1.21-1.9-2.22-1.66-3.44-3.13-4.99-8.16 1.07-21.05 12.81-26.23 11.61-6.64 19.19-12.95 29.35-12.49 1.11.15 6.09.81 7.19 3.75.72 1.93-.86 3.2 0 5.31-.06 1.49 11.84 7.09 11.86 8.43 1.71 3.05-.86 5.23.94 7.81 8.27 7.89 14.06-2.35 10.62 13.42 2.49 2.66 4.01 2.43 4.37 7.81 1.01 6.33 1.42 5.69 1.25 6.87-.77 5.28-7.45 8.28-7.81 8.43-3.54 1.54-4.83.39-7.18 2.19-4.26 4.49-6.14 11.99-3.13 18.74 1.44 2.42 3.62 3.66 8.44 5.62 21.07 12.27 48.49 2.93 57.46-4.38 17.43-11.87 26.19-31.52 38.72-53.08 2.4-3.93 5.11-8.19 6.87-14.68 7.45-20.57-18.91-24.12 2.33-47.76-.65 1.09 2.8-1.79 4.27 1.43 0 0 .54 2.8 1.57 3.02.93.19 1.44-1.93 3.01-2.11 1.05-.12 2.4.64 2.71 1.65.55 1.78-2.43 3.15-4.67 7.08-7.64 13.72 11.1 22.88 3.17 41.58z" fill="#ed6e44"/></svg>