<?xml version="1.0" encoding="UTF-8"?><svg id="Layer_2" xmlns="http://www.w3.org/2000/svg" width="391.81" height="241.56" viewBox="0 0 391.81 241.56"><defs><style>.cls-1{fill:#5e35c2;}</style></defs><g id="Layer_2-2"><g><path class="cls-1" d="M24.87,121.96c-5.62-2.04-6.18-6.9-6.61-11.66-.26-2.96-.12-5.99,.16-8.96,.14-1.47-.13-2.09-1.52-2.53-3.12-.97-6.13-2.2-8.09-5.06-3.37-4.89-3.43-10.17-.62-15.06,3.69-6.42,6.99-12.99,9.55-19.92,2.16-5.86,3.2-11.96,2.94-18.28-3.91,.59-7.43,.07-10.72-1.76-1.49-.83-2.69-2.09-1.89-3.82,.91-1.95,2.53-1.1,4.09-.57,2.6,.89,5.28,1.54,8.43,2.43,0-4.64,.15-8.53-.03-12.41-.61-13.04,8.18-19.82,19.01-21.94C49.65,.46,59.82,.16,70.03,0c6.64-.1,12.78,1.71,18.84,4.03,3.08,1.18,6.06,2.63,9.08,3.96,1.58,.69,2.56,1.83,1.75,3.52-.84,1.75-2.24,1.33-3.82,.73-6.34-2.4-12.59-5.41-19.17-6.69-6.09-1.19-12.56-.59-18.86-.54-3.47,.03-6.98,.33-10.39,.92-4.38,.76-8.8,1.58-12.99,3.02-6.93,2.39-9.28,8.15-9.43,14.92-.11,4.72,.21,9.45,.44,14.17,.55,10.96-2.2,21.19-6.91,30.96-1.9,3.94-4.36,7.63-6.11,11.63-.91,2.07-1.06,4.57-1.13,6.89-.13,4.14,4.02,6.27,7.76,6.49,4.16,.25,4.94,2.09,4.34,6.03-.67,4.37-.58,8.96-.07,13.37,.37,3.25,5.35,6.06,8.59,5.98,4.47-.11,8.95-.11,13.4,.14,5.88,.32,11.75,.96,17.62,1.39,1.7,.13,3.4,.34,3.37,2.43-.03,2.05-1.7,2.47-3.42,2.36-7.37-.45-14.73-.96-22.1-1.41-2.41-.15-4.82-.2-7.23-.25-5.82-.13-7.16,4.01-6.19,8.81,.62,3.07,2.53,5.86,3.67,8.85,.81,2.11,1.76,4.33,1.84,6.53,.22,5.81,0,11.64-.03,17.46-.04,7.02,3.16,11.74,10.02,13.59,7.55,2.04,15.34,2.62,22.9,.72,6.16-1.54,12.12-4.05,17.96-6.6,7.52-3.27,14.93-6.84,22.21-10.62,4.85-2.52,9.3-5.78,14.09-8.43,9.22-5.12,18.72-9.74,27.78-15.13,7.55-4.49,14.69-9.7,21.86-14.8,1.07-.76,1.45-2.64,1.88-4.09,.37-1.25,.12-2.71,.6-3.89,.28-.67,1.54-1.39,2.25-1.3,.7,.1,1.72,1.15,1.81,1.87,.54,4.78-.38,8.92-4.65,12.08-10.11,7.47-20.57,14.3-31.86,19.88-5.72,2.83-11.29,5.96-16.83,9.15-4.89,2.81-9.54,6.06-14.47,8.79-8.05,4.46-16.16,8.82-24.9,11.87-5.32,1.86-10.62,3.77-15.89,5.76-4.24,1.59-8.65,1.76-13.04,1.46-5.71-.4-11.45-.83-16.7-3.48-6.23-3.14-9.29-8.46-9.66-15.2-.31-5.64-.18-11.31-.02-16.97,.08-2.85-.55-5.3-2.01-7.76-4.09-6.9-5.31-11.85-1.32-20.63Z"/><path class="cls-1" d="M380.73,135c6.04,3.04,5.77,7.6,3.8,12.53-1.29,3.24-2.28,6.73-4.23,9.53-3.68,5.27-3.37,10.65-1.98,16.42,.71,2.96,1.07,6.06,1.15,9.11,.17,6.68-4.6,12.72-11.19,13.98-4.14,.79-8.39,1.17-12.61,1.38-12.28,.62-24.58,.89-36.85,1.66-5.86,.37-11.67,1.53-17.48,2.41-.86,.13-1.86,.52-2.43,1.13-3.45,3.74-5.85,8.1-6.7,13.13-.85,5.05-1.28,10.17-2.05,15.24-.41,2.69-1.07,5.35-1.72,8-.32,1.33-1.25,2.46-2.67,1.88-.8-.33-1.72-1.63-1.7-2.47,.08-2.62,.53-5.23,.92-7.83,.76-5.08,1.45-10.19,2.41-15.23,1.23-6.43,4.32-12,8.87-16.66,1.06-1.08,2.88-1.75,4.44-1.97,10.26-1.43,20.48-3.07,30.92-3.07,9.61,0,19.23-.87,28.84-1.45,2.48-.15,4.95-.57,7.41-.99,3.27-.55,6.54-4.03,6.43-7.33-.16-4.46-.37-8.98-1.25-13.33-.95-4.7-.72-8.97,1.51-13.25,2.11-4.04,4.06-8.18,5.77-12.4,1.69-4.19-.07-5.95-4.64-5.58-6.95,.55-13.93,.78-20.9,1.1-.82,.04-1.79,.04-2.43-.36-.74-.47-1.54-1.34-1.67-2.14-.1-.64,.59-1.77,1.23-2.09,1.06-.54,2.35-.79,3.56-.84,4.57-.21,9.15-.52,13.71-.38,6.11,.18,9.11-3.74,11.67-8.28,2.91-5.16,1.13-9.31-2.33-12.52-.96-.89-1.88-1.9-2.59-3-1.85-2.85-1.44-5.14,.93-7.61,3.15-3.28,6.36-6.54,9.25-10.04,2.3-2.79,1.91-6.52-.8-8.94-4.71-4.2-10.05-7.79-14.28-12.41-6.43-7.02-12.87-14.26-16.31-23.34-1.69-4.44-2.58-9.25-3.29-13.98-.8-5.33-2.91-9.71-7.97-11.76-2.99-1.21-6.4-1.6-9.67-1.89-12.49-1.08-24.02,3.27-35.7,6.66-1.83,.53-3.62,1.37-5.48,1.57-1.08,.12-2.8-.43-3.28-1.24-.9-1.51,.35-2.75,1.8-3.19,5.95-1.79,11.93-3.48,17.91-5.15,3.27-.91,6.55-1.86,9.88-2.5,2.82-.54,5.72-.94,8.58-.89,4.78,.09,9.66,.08,14.32,1.03,6.71,1.36,13.7,7.5,14.23,16,.6,9.64,4.32,17.86,10.17,25.68,5.63,7.52,12.15,13.95,19.7,19.15,7.14,4.92,7.87,15.36,1.58,21.34-2.22,2.11-4.26,4.42-6.56,6.43-1.45,1.26-1.44,2.19-.17,3.44,1.06,1.05,2.14,2.11,3.02,3.3,4.54,6.16,4.16,13.59-.91,19.37-.64,.73-1.24,1.49-2.18,2.62Z"/><path class="cls-1" d="M64.53,40.31c-3.95-.67-9.44-1.45-14.84-2.61-1.22-.26-2.36-1.69-3.12-2.86-.39-.59-.16-2.12,.36-2.6,.52-.48,2.02-.58,2.64-.17,3.82,2.48,8.16,2.57,12.41,2.9,7.09,.55,14.03-.88,20.99-1.89,3.71-.54,6.63-2.51,9.29-4.96,1.13-1.05,2.3-2.34,3.8-.9,1.63,1.56,.6,3.01-.67,4.28-3.89,3.89-8.64,6.21-13.99,7.02-5.07,.77-10.21,1.1-16.88,1.78Z"/><path class="cls-1" d="M332.24,58.63c-5.46,.3-10.7-1.4-15.64-4.17-4.33-2.43-8.68-4.81-12.96-7.32-.9-.52-1.65-1.42-2.25-2.29-.82-1.19-1.13-2.75,.37-3.44,.84-.39,2.52-.08,3.24,.57,6.18,5.61,13.71,8.6,21.46,11.1,2.25,.73,4.74,.8,7.13,.95,2.31,.14,4.33-.51,6-2.41,.58-.66,2.13-.46,3.24-.65,.09,1.2,.71,2.74,.19,3.53-2.46,3.73-6.21,4.74-10.78,4.12Z"/><path class="cls-1" d="M92.12,198.5c1.08,8.14-3.16,14.83-6.02,21.83-1.62,3.98-3.88,7.7-5.82,11.55-.7,1.4-1.91,2.24-3.17,1.39-.73-.49-1.27-2.24-.97-3.11,.74-2.17,2.12-4.1,3.05-6.22,2.56-5.83,5.53-11.55,7.34-17.61,1.17-3.91,.62-8.35,.78-12.55,.03-.9-.43-1.87-.22-2.7,.25-.95,.99-1.78,1.51-2.66,.95,.64,2.57,1.15,2.74,1.96,.54,2.65,.56,5.42,.78,8.14Z"/><path class="cls-1" d="M362.1,101.18c-6.83-.02-10.75-5.71-9.05-12.68,.41-1.68,.43-3.53,1.17-5.04,.6-1.22,2.11-2.93,3.06-2.84,1.86,.18,1.85,2.1,1.58,3.79-.38,2.36-.77,4.74-.84,7.12-.11,3.89,.44,4.36,4.26,4.85,1.63,.21,4.08-.67,3.89,2.39-.18,2.92-2.55,2.21-4.06,2.41Z"/><path class="cls-1" d="M7.65,11c3.14-.56,5.79,1.08,8.43,2.65,.73,.44,1.5,1.23,1.71,2.01,.24,.86,.16,2.41-.34,2.71-.71,.42-2.01,.17-2.94-.14-2.54-.85-4.94-2.23-7.53-2.73-2.3-.45-2.97,.65-2.39,2.96,.36,1.44,1.12,2.81,1.28,4.26,.1,.86-.4,2.32-1.03,2.59-.71,.31-2.1-.16-2.77-.76C.33,22.98-.77,15.25,.65,13.4c.86-1.12,2.47-1.79,3.87-2.33,.87-.34,1.97-.06,3.13-.06Z"/><path class="cls-1" d="M50.47,81.13c.46,7.75-3.7,12.44-10.35,15.32-.86,.37-2.19-.36-3.31-.58,.25-1.1,.17-2.5,.84-3.21,.98-1.04,2.5-1.56,3.77-2.35,3.01-1.89,4.43-4.6,4.18-8.17-.06-.83-.26-1.79,.07-2.46,.52-1.05,1.27-2.42,2.22-2.71,1.67-.51,2.14,1.11,2.46,2.43,.13,.56,.09,1.15,.13,1.73Z"/></g></g></svg>