<?xml version="1.0" encoding="UTF-8"?><svg id="Layer_2" xmlns="http://www.w3.org/2000/svg" width="1227" height="889" viewBox="0 0 1227 889"><defs><style>.cls-1{fill:#ed6e44;}.cls-2{fill:#e7e0d3;}.cls-3{fill:#decefb;}.cls-4{fill:#5e35c2;}</style></defs><g id="Layer_2-2"><rect class="cls-4" width="1227" height="889"/><g><path class="cls-3" d="M173.22,37.42h2.47v3.77h.02s2.51-3.77,2.51-3.77h2.9l-2.87,4.03,3.11,4.65h-3l-2.65-4.26h-.02v4.26h-2.47v-8.68Z"/><path class="cls-3" d="M181.83,37.42h2.69c1.38,0,2.23,.16,2.83,.49,.62,.35,1.04,.91,1.04,1.69s-.47,1.34-1.32,1.67v.02c1.21,.41,1.68,1.18,1.68,2.14,0,1.01-.52,1.79-1.51,2.23-.66,.3-1.54,.44-2.59,.44h-2.82v-8.68Zm3,3.47c.74,0,1.09-.23,1.09-.76,0-.28-.1-.48-.36-.61-.18-.1-.46-.13-.97-.13h-.29v1.5h.53Zm-.17,3.25c.71,0,1.07-.06,1.27-.17,.24-.13,.35-.35,.35-.66,0-.59-.41-.84-1.2-.84h-.78v1.67h.36Z"/><path class="cls-3" d="M189.64,37.42h2.47v3.13h3.09v-3.13h2.47v8.68h-2.47v-3.47h-3.09v3.47h-2.47v-8.68Z"/><path class="cls-3" d="M209.84,41.99c0,1.32-.25,2.23-.73,2.87-.65,.86-1.83,1.38-3.29,1.38s-2.67-.49-3.33-1.42c-.46-.64-.68-1.56-.68-2.83v-4.57h2.47v4.43c0,.84,.1,1.33,.34,1.67,.24,.34,.66,.58,1.26,.58,.54,0,.94-.19,1.19-.5,.28-.34,.41-.89,.41-1.74v-4.43h2.38v4.57Z"/><path class="cls-3" d="M214.85,42.96c-.48-.65-.9-1.24-1.33-1.86h-.02c.01,.74,.02,1.49,.02,2.22v2.78h-2.37v-8.68h2.31l2.3,3.14c.48,.65,.9,1.24,1.33,1.86h.02c-.01-.74-.02-1.49-.02-2.22v-2.78h2.37v8.68h-2.31l-2.3-3.14Z"/><path class="cls-3" d="M220.84,37.42h2.47v8.68h-2.47v-8.68Z"/><path class="cls-3" d="M223.91,37.42h2.65l1.2,3.39c.25,.72,.49,1.42,.72,2.11h.02c.24-.71,.5-1.45,.76-2.13l1.24-3.37h2.54l-3.32,8.68h-2.48l-3.32-8.68Z"/><path class="cls-3" d="M233.64,37.42h5.66v2.09h-3.19v1.1h2.7v1.97h-2.7v1.44h3.33v2.09h-5.8v-8.68Z"/><path class="cls-3" d="M240.55,37.42h3.03c1.06,0,1.83,.13,2.44,.43,.84,.41,1.4,1.14,1.4,2.27,0,1.07-.52,1.88-1.59,2.34l2.3,3.65h-2.79l-1.93-3.3h-.38v3.3h-2.47v-8.68Zm3.08,3.69c.46,0,.78-.06,.97-.18,.23-.13,.35-.36,.35-.68,0-.37-.17-.6-.42-.72-.2-.1-.49-.14-1.06-.14h-.46v1.73h.61Z"/><path class="cls-3" d="M248.56,43.29c1.08,.62,2.3,.89,2.9,.89,.5,0,.86-.18,.86-.62,0-.62-.7-.62-1.8-1.01-1.32-.46-2.23-1.1-2.23-2.51,0-1.69,1.31-2.76,3.25-2.76,.9,0,2.02,.23,2.83,.64v2.28c-1.04-.59-2.19-.86-2.81-.86-.46,0-.77,.14-.77,.53,0,.56,.67,.56,1.73,.94,1.36,.48,2.3,1.15,2.3,2.61,0,1.75-1.38,2.82-3.39,2.82-.89,0-2-.2-2.88-.62v-2.31Z"/><path class="cls-3" d="M255.79,37.42h2.47v8.68h-2.47v-8.68Z"/><path class="cls-3" d="M261.78,39.5h-2.76v-2.09h7.99v2.09h-2.76v6.6h-2.47v-6.6Z"/><path class="cls-3" d="M267.77,37.42h5.66v2.09h-3.19v1.1h2.7v1.97h-2.7v1.44h3.33v2.09h-5.8v-8.68Z"/><path class="cls-3" d="M276.88,39.5h-2.76v-2.09h7.99v2.09h-2.76v6.6h-2.47v-6.6Z"/></g><g><path class="cls-3" d="M329.22,37.42h2.47v8.68h-2.47v-8.68Z"/><path class="cls-3" d="M336.77,42.96c-.48-.65-.9-1.24-1.33-1.86h-.02c.01,.74,.02,1.49,.02,2.22v2.78h-2.37v-8.68h2.31l2.3,3.14c.48,.65,.9,1.24,1.33,1.86h.02c-.01-.74-.02-1.49-.02-2.22v-2.78h2.37v8.68h-2.31l-2.3-3.14Z"/><path class="cls-3" d="M342.76,37.42h2.49c1.8,0,3.15,.3,4.08,1,.96,.72,1.49,1.9,1.49,3.36,0,1.3-.41,2.37-1.24,3.13-.86,.78-2.19,1.2-4.28,1.2h-2.54v-8.68Zm2.57,6.6c1.57,0,2.21-.31,2.58-.76,.32-.4,.44-.92,.44-1.49,0-.82-.25-1.4-.74-1.77-.53-.4-1.32-.49-2.29-.49h-.08v4.51h.1Z"/><path class="cls-3" d="M351.85,37.42h3.03c1.06,0,1.83,.13,2.44,.43,.84,.41,1.4,1.14,1.4,2.27,0,1.07-.52,1.88-1.59,2.34l2.3,3.65h-2.79l-1.93-3.3h-.38v3.3h-2.47v-8.68Zm3.08,3.69c.46,0,.78-.06,.97-.18,.23-.13,.35-.36,.35-.68,0-.37-.17-.6-.42-.72-.2-.1-.49-.14-1.06-.14h-.46v1.73h.61Z"/><path class="cls-3" d="M359.88,37.42h5.66v2.09h-3.19v1.1h2.7v1.97h-2.7v1.44h3.33v2.09h-5.8v-8.68Z"/><path class="cls-3" d="M369.62,37.42h2.69c1.38,0,2.23,.16,2.83,.49,.62,.35,1.04,.91,1.04,1.69s-.47,1.34-1.32,1.67v.02c1.21,.41,1.68,1.18,1.68,2.14,0,1.01-.52,1.79-1.51,2.23-.66,.3-1.54,.44-2.59,.44h-2.82v-8.68Zm3,3.47c.74,0,1.09-.23,1.09-.76,0-.28-.1-.48-.36-.61-.18-.1-.46-.13-.97-.13h-.29v1.5h.53Zm-.17,3.25c.71,0,1.07-.06,1.27-.17,.24-.13,.35-.35,.35-.66,0-.59-.41-.84-1.2-.84h-.78v1.67h.36Z"/><path class="cls-3" d="M379.24,42.21l-3.37-4.8h2.88l.79,1.22c.32,.49,.66,1.02,.96,1.51h.02c.31-.5,.62-1.01,.94-1.49l.8-1.25h2.81l-3.36,4.75v3.93h-2.47v-3.89Z"/></g><g><path class="cls-3" d="M460.22,20.42h2.47v3.77h.02s2.51-3.77,2.51-3.77h2.9l-2.87,4.03,3.11,4.65h-3l-2.65-4.26h-.02v4.26h-2.47v-8.68Z"/><path class="cls-3" d="M476.12,28.61c-.8,.38-1.87,.62-2.91,.62-2.95,0-4.92-1.9-4.92-4.43s2.05-4.52,4.87-4.52c1.02,0,1.96,.25,2.67,.61v2.39c-.77-.47-1.7-.8-2.58-.8-1.55,0-2.49,1.02-2.49,2.33s.92,2.34,2.45,2.34c.18,0,.4-.02,.53-.06v-.92h-1.19v-1.81h3.57v4.26Z"/><path class="cls-3" d="M477.41,26.29c1.08,.62,2.3,.89,2.9,.89,.5,0,.86-.18,.86-.62,0-.62-.7-.62-1.8-1.01-1.32-.46-2.23-1.1-2.23-2.51,0-1.69,1.31-2.76,3.25-2.76,.9,0,2.01,.23,2.83,.64v2.28c-1.04-.59-2.19-.86-2.81-.86-.46,0-.77,.14-.77,.53,0,.56,.67,.56,1.73,.94,1.36,.48,2.3,1.15,2.3,2.61,0,1.75-1.38,2.82-3.39,2.82-.89,0-2-.2-2.88-.62v-2.31Z"/><path class="cls-3" d="M491.18,25.96c-.48-.65-.9-1.24-1.33-1.86h-.02c.01,.74,.02,1.49,.02,2.22v2.78h-2.37v-8.68h2.31l2.3,3.14c.48,.65,.9,1.24,1.33,1.86h.02c-.01-.74-.02-1.49-.02-2.22v-2.78h2.37v8.68h-2.31l-2.3-3.14Z"/><path class="cls-3" d="M499.68,25.21l-3.37-4.8h2.88l.79,1.22c.32,.49,.66,1.02,.96,1.51h.02c.31-.5,.62-1.01,.94-1.49l.8-1.25h2.81l-3.36,4.75v3.93h-2.47v-3.89Z"/><path class="cls-3" d="M508.35,22.5h-2.76v-2.09h7.99v2.09h-2.76v6.6h-2.47v-6.6Z"/><path class="cls-3" d="M518.44,20.28c2.61,0,4.64,1.97,4.64,4.47s-2.03,4.47-4.64,4.47-4.64-1.97-4.64-4.47,2.03-4.47,4.64-4.47Zm0,6.73c1.22,0,2.17-1,2.17-2.25s-.95-2.25-2.17-2.25-2.17,1-2.17,2.25,.95,2.25,2.17,2.25Z"/><path class="cls-3" d="M522.85,20.42h2.65l1.2,3.39c.25,.72,.49,1.42,.72,2.11h.02c.24-.71,.5-1.45,.76-2.13l1.24-3.37h2.54l-3.32,8.68h-2.48l-3.32-8.68Z"/></g><g><path class="cls-3" d="M499.75,100.61c-.8,.38-1.87,.62-2.91,.62-2.95,0-4.92-1.9-4.92-4.43s2.05-4.52,4.87-4.52c1.02,0,1.96,.25,2.67,.61v2.39c-.77-.47-1.7-.8-2.58-.8-1.55,0-2.49,1.02-2.49,2.33s.92,2.34,2.45,2.34c.18,0,.4-.02,.53-.06v-.92h-1.19v-1.81h3.57v4.26Z"/><path class="cls-3" d="M503.92,92.42h2.43l3.51,8.68h-2.69l-.61-1.77h-2.97l-.64,1.77h-2.55l3.51-8.68Zm1.18,2.64c-.17,.55-.34,1.06-.54,1.62l-.3,.83h1.68l-.29-.83c-.2-.59-.36-1.08-.53-1.62h-.02Z"/><path class="cls-3" d="M510.58,101.1v-8.68h2.37l2.24,3.17,2.23-3.17h2.35v8.68h-2.47v-2.83c0-.68,.01-1.44,.02-2.04h-.02c-.36,.54-.76,1.1-1.14,1.65l-1.03,1.46-1.04-1.46c-.4-.55-.78-1.12-1.14-1.67h-.02c.01,.61,.02,1.37,.02,2.05v2.83h-2.37Z"/><path class="cls-3" d="M521.15,101.1v-8.68h2.37l2.24,3.17,2.23-3.17h2.35v8.68h-2.47v-2.83c0-.68,.01-1.44,.02-2.04h-.02c-.36,.54-.76,1.1-1.14,1.65l-1.03,1.46-1.04-1.46c-.4-.55-.78-1.12-1.14-1.67h-.02c.01,.61,.02,1.37,.02,2.05v2.83h-2.37Z"/><path class="cls-3" d="M531.73,92.42h5.66v2.09h-3.19v1.1h2.7v1.97h-2.7v1.44h3.33v2.09h-5.8v-8.68Z"/><path class="cls-3" d="M538.64,92.42h2.47v6.6h3.62v2.09h-6.09v-8.68Z"/><path class="cls-3" d="M545.58,92.42h2.47v3.13h3.09v-3.13h2.47v8.68h-2.47v-3.47h-3.09v3.47h-2.47v-8.68Z"/><path class="cls-3" d="M559.33,92.28c2.61,0,4.64,1.97,4.64,4.47s-2.03,4.47-4.64,4.47-4.64-1.97-4.64-4.47,2.03-4.47,4.64-4.47Zm0,6.73c1.22,0,2.17-1,2.17-2.25s-.95-2.25-2.17-2.25-2.17,1-2.17,2.25,.95,2.25,2.17,2.25Z"/><path class="cls-3" d="M565.05,92.42h2.47v6.6h3.62v2.09h-6.09v-8.68Z"/><path class="cls-3" d="M572,101.1v-8.68h2.37l2.24,3.17,2.23-3.17h2.35v8.68h-2.47v-2.83c0-.68,.01-1.44,.02-2.04h-.02c-.36,.54-.76,1.1-1.14,1.65l-1.03,1.46-1.04-1.46c-.4-.55-.78-1.12-1.14-1.67h-.02c.01,.61,.02,1.37,.02,2.05v2.83h-2.37Z"/></g><g><path class="cls-2" d="M306.91,153.58l-5.17-7.8h5.61l1.12,1.81c.54,.88,1.05,1.75,1.56,2.63h.05c.49-.86,.98-1.7,1.49-2.56l1.14-1.88h5.4l-5.17,7.8,6.1,9.05h-5.75l-1.86-3c-.56-.91-1.07-1.77-1.58-2.65h-.05c-.54,.93-1.09,1.86-1.7,2.84l-1.75,2.82h-5.52l6.07-9.05Z"/><path class="cls-2" d="M319.73,145.78h10.98v4.05h-6.19v2.14h5.24v3.82h-5.24v2.79h6.47v4.05h-11.26v-16.85Z"/><path class="cls-2" d="M340.32,156.53c-.93-1.26-1.75-2.4-2.58-3.61l-.05,.02c.02,1.42,.05,2.86,.05,4.28v5.4h-4.61v-16.85h4.49l4.47,6.1c.93,1.26,1.75,2.4,2.58,3.61l.05-.02c-.02-1.42-.05-2.86-.05-4.28v-5.4h4.61v16.85h-4.49l-4.47-6.1Z"/><path class="cls-2" d="M360.36,145.53c5.07,0,9.01,3.82,9.01,8.68s-3.93,8.68-9.01,8.68-9.01-3.82-9.01-8.68,3.93-8.68,9.01-8.68Zm0,13.05c2.37,0,4.21-1.93,4.21-4.38s-1.84-4.37-4.21-4.37-4.21,1.93-4.21,4.37,1.84,4.38,4.21,4.38Z"/><path class="cls-2" d="M378.62,156.53c-.93-1.26-1.75-2.4-2.58-3.61l-.05,.02c.02,1.42,.05,2.86,.05,4.28v5.4h-4.61v-16.85h4.49l4.47,6.1c.93,1.26,1.75,2.4,2.58,3.61l.05-.02c-.02-1.42-.05-2.86-.05-4.28v-5.4h4.61v16.85h-4.49l-4.47-6.1Z"/><path class="cls-2" d="M402.33,144.9h3.42l-7.98,18.62h-3.42l7.98-18.62Z"/><path class="cls-2" d="M410.27,145.78h5.14l2.33,6.59c.49,1.4,.95,2.75,1.4,4.1h.05c.47-1.37,.98-2.82,1.47-4.14l2.4-6.54h4.93l-6.45,16.85h-4.82l-6.45-16.85Z"/><path class="cls-2" d="M436.51,145.53c5.07,0,9.01,3.82,9.01,8.68s-3.93,8.68-9.01,8.68-9.01-3.82-9.01-8.68,3.93-8.68,9.01-8.68Zm0,13.05c2.37,0,4.21-1.93,4.21-4.38s-1.84-4.37-4.21-4.37-4.21,1.93-4.21,4.37,1.84,4.38,4.21,4.38Z"/><path class="cls-2" d="M450.87,153.58l-5.17-7.8h5.61l1.12,1.81c.54,.88,1.05,1.75,1.56,2.63h.05c.49-.86,.98-1.7,1.49-2.56l1.14-1.88h5.4l-5.17,7.8,6.1,9.05h-5.75l-1.86-3c-.56-.91-1.07-1.77-1.58-2.65h-.05c-.54,.93-1.09,1.86-1.7,2.84l-1.75,2.82h-5.52l6.07-9.05Z"/></g><g><path class="cls-2" d="M71.27,179h4.84c3.49,0,6.12,.58,7.91,1.93,1.86,1.4,2.89,3.68,2.89,6.52,0,2.51-.79,4.61-2.4,6.07-1.68,1.51-4.26,2.33-8.31,2.33h-4.93v-16.85Zm4.98,12.8c3.05,0,4.28-.6,5-1.47,.63-.77,.86-1.79,.86-2.89,0-1.58-.49-2.72-1.44-3.44-1.02-.77-2.56-.95-4.44-.95h-.16v8.75h.19Z"/><path class="cls-2" d="M97.33,178.74c5.07,0,9.01,3.82,9.01,8.68s-3.93,8.68-9.01,8.68-9.01-3.82-9.01-8.68,3.93-8.68,9.01-8.68Zm0,13.05c2.37,0,4.21-1.93,4.21-4.38s-1.84-4.37-4.21-4.37-4.21,1.93-4.21,4.37,1.84,4.38,4.21,4.38Z"/><path class="cls-2" d="M106.31,179h5.03l1.63,5.98c.4,1.44,.79,2.96,1.14,4.35h.05c.37-1.4,.81-2.96,1.23-4.37l1.75-5.96h3.51l1.7,5.93c.42,1.47,.84,2.96,1.21,4.4h.05c.4-1.49,.81-3,1.23-4.47l1.68-5.86h4.84l-5.14,16.85h-5.07l-1.16-4.07c-.42-1.49-.81-2.91-1.19-4.37h-.05c-.4,1.49-.81,3-1.23,4.44l-1.16,4h-4.96l-5.07-16.85Z"/><path class="cls-2" d="M139.98,189.75c-.93-1.26-1.75-2.4-2.58-3.61l-.05,.02c.02,1.42,.05,2.86,.05,4.28v5.4h-4.61v-16.85h4.49l4.47,6.1c.93,1.26,1.75,2.4,2.58,3.61l.05-.02c-.02-1.42-.05-2.86-.05-4.28v-5.4h4.61v16.85h-4.49l-4.47-6.1Z"/><path class="cls-2" d="M167.04,187.86c0,2.56-.49,4.33-1.42,5.56-1.26,1.68-3.56,2.68-6.38,2.68s-5.19-.95-6.47-2.75c-.88-1.23-1.33-3.03-1.33-5.49v-8.87h4.79v8.59c0,1.63,.19,2.58,.65,3.23,.47,.65,1.28,1.12,2.44,1.12,1.05,0,1.81-.37,2.3-.98,.54-.65,.79-1.72,.79-3.37v-8.59h4.61v8.87Z"/><path class="cls-2" d="M176.74,189.75c-.93-1.26-1.75-2.4-2.58-3.61l-.05,.02c.02,1.42,.05,2.86,.05,4.28v5.4h-4.61v-16.85h4.49l4.47,6.1c.93,1.26,1.75,2.4,2.58,3.61l.05-.02c-.02-1.42-.05-2.86-.05-4.28v-5.4h4.61v16.85h-4.49l-4.47-6.1Z"/><path class="cls-2" d="M188.35,179h4.84c3.49,0,6.12,.58,7.91,1.93,1.86,1.4,2.89,3.68,2.89,6.52,0,2.51-.79,4.61-2.4,6.07-1.68,1.51-4.26,2.33-8.31,2.33h-4.93v-16.85Zm4.98,12.8c3.05,0,4.28-.6,5-1.47,.63-.77,.86-1.79,.86-2.89,0-1.58-.49-2.72-1.44-3.44-1.02-.77-2.56-.95-4.44-.95h-.16v8.75h.19Z"/><path class="cls-2" d="M205.99,179h10.98v4.05h-6.19v2.14h5.24v3.82h-5.24v2.79h6.47v4.05h-11.26v-16.85Z"/><path class="cls-2" d="M219.39,179h5.89c2.05,0,3.56,.26,4.72,.84,1.63,.79,2.72,2.21,2.72,4.4,0,2.07-1,3.65-3.09,4.54l4.47,7.07h-5.42l-3.75-6.4h-.74v6.4h-4.79v-16.85Zm5.98,7.17c.88,0,1.51-.12,1.88-.35,.44-.26,.67-.7,.67-1.33,0-.72-.33-1.16-.81-1.4-.4-.19-.95-.28-2.05-.28h-.88v3.35h1.19Z"/></g><g><path class="cls-3" d="M109.37,240.5h-2.76v-2.09h7.99v2.09h-2.76v6.6h-2.47v-6.6Z"/><path class="cls-3" d="M115.36,238.42h2.47v8.68h-2.47v-8.68Z"/><path class="cls-3" d="M118.43,238.42h2.65l1.2,3.39c.25,.72,.49,1.42,.72,2.11h.02c.24-.71,.5-1.45,.76-2.13l1.24-3.37h2.54l-3.32,8.68h-2.48l-3.32-8.68Z"/><path class="cls-3" d="M131.96,238.28c2.61,0,4.64,1.97,4.64,4.47s-2.03,4.47-4.64,4.47-4.64-1.97-4.64-4.47,2.03-4.47,4.64-4.47Zm0,6.73c1.22,0,2.17-1,2.17-2.25s-.95-2.25-2.17-2.25-2.17,1-2.17,2.25,.95,2.25,2.17,2.25Z"/><path class="cls-3" d="M137.68,238.42h2.47v6.6h3.62v2.09h-6.09v-8.68Z"/><path class="cls-3" d="M144.62,238.42h2.47v8.68h-2.47v-8.68Z"/></g><g><path class="cls-3" d="M668.31,273.72c-.77,.36-1.69,.52-2.52,.52-2.91,0-4.87-1.94-4.87-4.46s2.03-4.49,4.87-4.49c.86,0,1.7,.18,2.4,.49v2.42c-.64-.4-1.5-.72-2.35-.72-1.46,0-2.45,.95-2.45,2.27s.91,2.29,2.49,2.29c.85,0,1.69-.3,2.42-.76v2.43Z"/><path class="cls-3" d="M669.41,265.42h2.47v3.13h3.09v-3.13h2.47v8.68h-2.47v-3.47h-3.09v3.47h-2.47v-8.68Z"/><path class="cls-3" d="M678.81,265.42h3.04c1.05,0,1.83,.13,2.43,.43,.84,.41,1.4,1.14,1.4,2.27,0,1.07-.52,1.88-1.6,2.34l2.3,3.65h-2.79l-1.93-3.3h-.38v3.3h-2.47v-8.68Zm3.08,3.69c.46,0,.78-.06,.97-.18,.23-.13,.35-.36,.35-.68,0-.37-.17-.6-.42-.72-.2-.1-.49-.14-1.06-.14h-.46v1.73h.61Z"/><path class="cls-3" d="M686.84,265.42h2.47v8.68h-2.47v-8.68Z"/><path class="cls-3" d="M690.66,271.29c1.08,.62,2.3,.89,2.9,.89,.5,0,.86-.18,.86-.62,0-.62-.7-.62-1.8-1.01-1.32-.46-2.23-1.1-2.23-2.51,0-1.69,1.31-2.76,3.25-2.76,.9,0,2.02,.23,2.83,.64v2.28c-1.04-.59-2.19-.86-2.81-.86-.46,0-.77,.14-.77,.53,0,.56,.67,.56,1.73,.94,1.36,.48,2.3,1.15,2.3,2.61,0,1.75-1.38,2.82-3.39,2.82-.89,0-2-.2-2.88-.62v-2.31Z"/><path class="cls-3" d="M700.04,267.5h-2.76v-2.09h7.99v2.09h-2.76v6.6h-2.47v-6.6Z"/><path class="cls-3" d="M706.03,265.42h2.47v8.68h-2.47v-8.68Z"/><path class="cls-3" d="M712.72,265.42h2.44l3.51,8.68h-2.69l-.61-1.77h-2.97l-.64,1.77h-2.55l3.51-8.68Zm1.18,2.64c-.17,.55-.34,1.06-.54,1.62l-.3,.83h1.68l-.29-.83c-.2-.59-.36-1.08-.53-1.62h-.02Z"/><path class="cls-3" d="M723.09,270.96c-.48-.65-.9-1.24-1.33-1.86h-.02c.01,.74,.02,1.49,.02,2.22v2.78h-2.38v-8.68h2.31l2.3,3.14c.48,.65,.9,1.24,1.33,1.86h.02c-.01-.74-.02-1.49-.02-2.22v-2.78h2.37v8.68h-2.31l-2.3-3.14Z"/><path class="cls-3" d="M729.08,265.42h2.47v8.68h-2.47v-8.68Z"/><path class="cls-3" d="M735.78,265.42h2.43l3.51,8.68h-2.69l-.61-1.77h-2.97l-.64,1.77h-2.55l3.51-8.68Zm1.17,2.64c-.17,.55-.34,1.06-.54,1.62l-.3,.83h1.68l-.29-.83c-.2-.59-.36-1.08-.53-1.62h-.02Z"/></g><g><path class="cls-2" d="M939.16,807.25l-.02-.05,6.93-12.71-.02-.05h-6.21v-4.05h13.85l.02,.05-6.93,12.71,.02,.05h6.75v4.05h-14.38Z"/><path class="cls-2" d="M955.61,790.4h10.98v4.05h-6.19v2.14h5.24v3.82h-5.24v2.79h6.47v4.05h-11.26v-16.85Z"/><path class="cls-2" d="M969.01,790.4h5.21c2.68,0,4.33,.3,5.49,.95,1.21,.67,2.02,1.77,2.02,3.28s-.91,2.61-2.56,3.23v.05c2.35,.79,3.26,2.28,3.26,4.14,0,1.96-1,3.47-2.93,4.33-1.28,.58-2.98,.86-5.03,.86h-5.47v-16.85Zm5.82,6.73c1.44,0,2.12-.44,2.12-1.47,0-.54-.19-.93-.7-1.19-.35-.19-.88-.26-1.88-.26h-.56v2.91h1.02Zm-.33,6.31c1.37,0,2.07-.12,2.47-.33,.47-.26,.67-.67,.67-1.28,0-1.14-.79-1.63-2.33-1.63h-1.51v3.23h.7Z"/><path class="cls-2" d="M999.61,799.27c0,2.56-.49,4.33-1.42,5.56-1.26,1.67-3.56,2.68-6.38,2.68s-5.19-.95-6.47-2.75c-.88-1.23-1.33-3.02-1.33-5.49v-8.87h4.79v8.59c0,1.63,.19,2.58,.65,3.23s1.28,1.12,2.44,1.12c1.05,0,1.82-.37,2.3-.98,.54-.65,.79-1.72,.79-3.37v-8.59h4.61v8.87Z"/></g><circle class="cls-2" cx="277" cy="157" r="16"/><circle class="cls-2" cx="257" cy="187" r="16"/><g><path class="cls-3" d="M984.18,705.85c-.78-.78-1.26-1.88-1.26-3.09,0-2.51,2.03-4.47,4.64-4.47,.92,0,1.78,.25,2.5,.68l.71-.84,.88,.71-.7,.83c.78,.78,1.26,1.88,1.26,3.09,0,2.51-2.03,4.47-4.64,4.47-.92,0-1.78-.25-2.49-.68l-.71,.84-.88-.71,.7-.83Zm4.37-5.11c-.3-.16-.64-.24-.98-.24-1.22,0-2.17,1-2.17,2.25,0,.47,.13,.9,.36,1.26l2.79-3.27Zm-1.97,4.03c.3,.16,.63,.24,.98,.24,1.22,0,2.17-1,2.17-2.25,0-.47-.13-.9-.36-1.26l-2.79,3.27Z"/><path class="cls-3" d="M993.25,704.29c1.08,.62,2.3,.89,2.9,.89,.5,0,.86-.18,.86-.62,0-.62-.7-.62-1.8-1.01-1.32-.46-2.23-1.1-2.23-2.51,0-1.69,1.31-2.76,3.25-2.76,.9,0,2.01,.23,2.83,.64v2.28c-1.04-.59-2.2-.86-2.81-.86-.46,0-.77,.14-.77,.53,0,.56,.67,.56,1.73,.94,1.36,.48,2.3,1.15,2.3,2.61,0,1.75-1.38,2.82-3.39,2.82-.89,0-2-.2-2.88-.62v-2.31Z"/><path class="cls-3" d="M1002.64,700.5h-2.76v-2.09h7.99v2.09h-2.76v6.6h-2.47v-6.6Z"/><path class="cls-3" d="M1014.31,698.42h2.43l3.51,8.68h-2.69l-.61-1.77h-2.97l-.64,1.77h-2.55l3.51-8.68Zm1.17,2.64c-.17,.55-.34,1.06-.54,1.62l-.3,.83h1.68l-.29-.83c-.21-.59-.36-1.08-.53-1.62h-.02Z"/><path class="cls-3" d="M1020.97,707.1v-8.68h2.38l2.24,3.17,2.23-3.17h2.35v8.68h-2.47v-2.83c0-.68,.01-1.44,.02-2.04h-.02c-.36,.54-.76,1.1-1.14,1.65l-1.03,1.46-1.04-1.46c-.4-.55-.78-1.12-1.14-1.67h-.02c.01,.61,.02,1.37,.02,2.05v2.83h-2.38Z"/><path class="cls-3" d="M1034.4,698.42h2.43l3.51,8.68h-2.69l-.61-1.77h-2.97l-.64,1.77h-2.55l3.51-8.68Zm1.17,2.64c-.17,.55-.34,1.06-.54,1.62l-.3,.83h1.68l-.29-.83c-.21-.59-.36-1.08-.53-1.62h-.02Z"/><path class="cls-3" d="M1048.09,706.61c-.8,.38-1.87,.62-2.91,.62-2.95,0-4.92-1.9-4.92-4.43s2.05-4.52,4.87-4.52c1.02,0,1.96,.25,2.67,.61v2.39c-.77-.47-1.7-.8-2.58-.8-1.55,0-2.49,1.02-2.49,2.33s.92,2.34,2.45,2.34c.18,0,.4-.02,.53-.06v-.92h-1.19v-1.81h3.57v4.26Z"/><path class="cls-3" d="M1049.4,698.42h5.66v2.09h-3.19v1.1h2.7v1.97h-2.7v1.44h3.33v2.09h-5.8v-8.68Z"/><path class="cls-3" d="M1056.31,698.42h3.04c1.05,0,1.83,.13,2.43,.43,.84,.41,1.4,1.14,1.4,2.27,0,1.07-.52,1.88-1.6,2.34l2.3,3.65h-2.79l-1.93-3.3h-.38v3.3h-2.47v-8.68Zm3.08,3.69c.46,0,.78-.06,.97-.18,.23-.13,.35-.36,.35-.68,0-.37-.17-.6-.42-.72-.2-.1-.49-.14-1.06-.14h-.46v1.73h.61Z"/></g><g><path class="cls-3" d="M610.86,486.93h5.51l7.95,19.64h-6.08l-1.38-4.02h-6.73l-1.44,4.02h-5.78l7.95-19.64Zm2.66,5.97c-.38,1.25-.76,2.39-1.22,3.66l-.68,1.87h3.8l-.65-1.87c-.46-1.33-.81-2.44-1.19-3.66h-.05Z"/><path class="cls-3" d="M625.92,506.57v-19.64h5.37l5.07,7.16,5.05-7.16h5.32v19.64h-5.59v-6.4c0-1.55,.03-3.26,.05-4.61l-.05-.03c-.81,1.25-1.71,2.52-2.58,3.77l-2.33,3.31-2.36-3.31c-.89-1.25-1.76-2.52-2.58-3.77l-.05,.03c.03,1.36,.05,3.07,.05,4.61v6.4h-5.37Z"/><path class="cls-3" d="M656.28,486.93h5.51l7.95,19.64h-6.08l-1.38-4.02h-6.73l-1.44,4.02h-5.78l7.95-19.64Zm2.66,5.97c-.38,1.25-.76,2.39-1.22,3.66l-.68,1.87h3.8l-.65-1.87c-.46-1.33-.81-2.44-1.19-3.66h-.05Z"/><path class="cls-3" d="M687.24,505.46c-1.82,.87-4.23,1.41-6.59,1.41-6.67,0-11.12-4.29-11.12-10.01s4.64-10.23,11.01-10.23c2.31,0,4.42,.57,6.05,1.38v5.4c-1.74-1.06-3.85-1.82-5.83-1.82-3.5,0-5.64,2.31-5.64,5.26s2.09,5.29,5.53,5.29c.41,0,.9-.05,1.19-.14v-2.09h-2.69v-4.1h8.08v9.63Z"/><path class="cls-3" d="M690.21,486.93h12.8v4.72h-7.22v2.5h6.1v4.45h-6.1v3.26h7.54v4.72h-13.13v-19.64Z"/><path class="cls-3" d="M705.84,486.93h6.86c2.39,0,4.15,.3,5.51,.98,1.9,.92,3.17,2.58,3.17,5.13,0,2.42-1.17,4.26-3.61,5.29l5.21,8.25h-6.32l-4.37-7.46h-.87v7.46h-5.59v-19.64Zm6.97,8.36c1.03,0,1.76-.14,2.2-.41,.51-.3,.79-.81,.79-1.55,0-.84-.38-1.36-.95-1.63-.46-.22-1.11-.33-2.39-.33h-1.03v3.91h1.38Z"/><path class="cls-3" d="M723.99,486.93h6.08c3.12,0,5.05,.35,6.4,1.11,1.41,.79,2.36,2.06,2.36,3.83s-1.06,3.04-2.98,3.77v.05c2.74,.92,3.8,2.66,3.8,4.83,0,2.28-1.17,4.04-3.42,5.05-1.49,.68-3.47,1-5.86,1h-6.38v-19.64Zm6.78,7.84c1.68,0,2.47-.52,2.47-1.71,0-.62-.22-1.08-.81-1.38-.41-.22-1.03-.3-2.2-.3h-.65v3.39h1.19Zm-.38,7.35c1.6,0,2.41-.14,2.88-.38,.54-.3,.79-.79,.79-1.49,0-1.33-.92-1.9-2.71-1.9h-1.76v3.77h.81Z"/><path class="cls-3" d="M741.65,486.93h6.86c2.39,0,4.15,.3,5.51,.98,1.9,.92,3.17,2.58,3.17,5.13,0,2.42-1.17,4.26-3.61,5.29l5.21,8.25h-6.32l-4.37-7.46h-.87v7.46h-5.59v-19.64Zm6.97,8.36c1.03,0,1.76-.14,2.2-.41,.51-.3,.79-.81,.79-1.55,0-.84-.38-1.36-.95-1.63-.46-.22-1.11-.33-2.39-.33h-1.03v3.91h1.38Z"/><path class="cls-3" d="M769.63,486.63c5.92,0,10.5,4.45,10.5,10.12s-4.58,10.12-10.5,10.12-10.5-4.45-10.5-10.12,4.58-10.12,10.5-10.12Zm0,15.22c2.77,0,4.91-2.25,4.91-5.1s-2.14-5.1-4.91-5.1-4.91,2.25-4.91,5.1,2.14,5.1,4.91,5.1Z"/></g><g><path class="cls-3" d="M944.22,287.42h2.47v3.77h.02s2.51-3.77,2.51-3.77h2.9l-2.87,4.03,3.11,4.65h-3l-2.65-4.26h-.02v4.26h-2.47v-8.68Z"/><path class="cls-3" d="M952.83,287.42h2.47v6.6h3.62v2.09h-6.09v-8.68Z"/><path class="cls-3" d="M960.68,294.85c-.78-.78-1.26-1.88-1.26-3.09,0-2.51,2.03-4.47,4.64-4.47,.92,0,1.78,.25,2.5,.68l.71-.84,.88,.71-.7,.83c.78,.78,1.26,1.88,1.26,3.09,0,2.51-2.03,4.47-4.64,4.47-.92,0-1.78-.25-2.49-.68l-.71,.84-.88-.71,.7-.83Zm4.37-5.11c-.3-.16-.64-.24-.98-.24-1.22,0-2.17,1-2.17,2.25,0,.47,.13,.9,.36,1.26l2.79-3.27Zm-1.97,4.03c.3,.16,.63,.24,.98,.24,1.22,0,2.17-1,2.17-2.25,0-.47-.13-.9-.36-1.26l-2.79,3.27Z"/><path class="cls-3" d="M968.47,287.42h2.65l1.2,3.39c.25,.72,.49,1.42,.72,2.11h.02c.24-.71,.5-1.45,.75-2.13l1.24-3.37h2.54l-3.32,8.68h-2.48l-3.32-8.68Z"/><path class="cls-3" d="M978.21,287.42h5.66v2.09h-3.19v1.1h2.7v1.97h-2.7v1.44h3.33v2.09h-5.8v-8.68Z"/><path class="cls-3" d="M985.12,287.42h3.03c1.06,0,1.84,.13,2.44,.43,.84,.41,1.4,1.14,1.4,2.27,0,1.07-.52,1.88-1.59,2.34l2.3,3.65h-2.79l-1.93-3.3h-.38v3.3h-2.47v-8.68Zm3.08,3.69c.46,0,.78-.06,.97-.18,.23-.13,.35-.36,.35-.68,0-.37-.17-.6-.42-.72-.2-.1-.49-.14-1.06-.14h-.46v1.73h.61Z"/><path class="cls-3" d="M993.14,296.1v-8.68h2.38l2.24,3.17,2.23-3.17h2.35v8.68h-2.47v-2.83c0-.68,.01-1.44,.02-2.04h-.02c-.36,.54-.76,1.1-1.14,1.65l-1.03,1.46-1.04-1.46c-.4-.55-.78-1.12-1.14-1.67h-.02c.01,.61,.02,1.37,.02,2.05v2.83h-2.38Z"/><path class="cls-3" d="M1006.57,287.42h2.43l3.51,8.68h-2.69l-.61-1.77h-2.97l-.64,1.77h-2.55l3.51-8.68Zm1.17,2.64c-.17,.55-.34,1.06-.54,1.62l-.3,.83h1.68l-.29-.83c-.21-.59-.36-1.08-.53-1.62h-.02Z"/><path class="cls-3" d="M1013.23,287.42h3.04c1.05,0,1.83,.13,2.43,.43,.84,.41,1.4,1.14,1.4,2.27,0,1.07-.52,1.88-1.6,2.34l2.3,3.65h-2.79l-1.93-3.3h-.38v3.3h-2.47v-8.68Zm3.08,3.69c.46,0,.78-.06,.97-.18,.23-.13,.35-.36,.35-.68,0-.37-.17-.6-.42-.72-.2-.1-.49-.14-1.06-.14h-.46v1.73h.61Z"/><path class="cls-3" d="M1021.26,287.42h2.47v3.77h.02s2.51-3.77,2.51-3.77h2.9l-2.87,4.03,3.11,4.65h-3l-2.65-4.26h-.02v4.26h-2.47v-8.68Z"/><path class="cls-3" d="M1029.87,287.42h5.66v2.09h-3.19v1.1h2.7v1.97h-2.7v1.44h3.33v2.09h-5.8v-8.68Z"/><path class="cls-3" d="M1040.48,292.96c-.48-.65-.9-1.24-1.33-1.86h-.02c.01,.74,.02,1.49,.02,2.22v2.78h-2.37v-8.68h2.32l2.3,3.14c.48,.65,.9,1.24,1.33,1.86h.02c-.01-.74-.02-1.49-.02-2.22v-2.78h2.38v8.68h-2.31l-2.3-3.14Z"/></g><g><path class="cls-3" d="M162.22,689.42h2.47v3.13h3.09v-3.13h2.47v8.68h-2.47v-3.47h-3.09v3.47h-2.47v-8.68Z"/><path class="cls-3" d="M174.48,689.42h2.43l3.51,8.68h-2.69l-.61-1.77h-2.97l-.64,1.77h-2.55l3.51-8.68Zm1.18,2.64c-.17,.55-.34,1.06-.54,1.62l-.3,.83h1.68l-.29-.83c-.2-.59-.36-1.08-.53-1.62h-.02Z"/><path class="cls-3" d="M179.33,689.42h2.65l1.2,3.39c.25,.72,.49,1.42,.72,2.11h.02c.24-.71,.5-1.45,.76-2.13l1.24-3.37h2.54l-3.32,8.68h-2.48l-3.32-8.68Z"/><path class="cls-3" d="M192.77,694.96c-.48-.65-.9-1.24-1.33-1.86h-.02c.01,.74,.02,1.49,.02,2.22v2.78h-2.37v-8.68h2.31l2.3,3.14c.48,.65,.9,1.24,1.33,1.86h.02c-.01-.74-.02-1.49-.02-2.22v-2.78h2.37v8.68h-2.31l-2.3-3.14Z"/><path class="cls-3" d="M198.76,689.42h5.66v2.09h-3.19v1.1h2.7v1.97h-2.7v1.44h3.33v2.09h-5.8v-8.68Z"/><path class="cls-3" d="M205.65,695.29c1.08,.62,2.3,.89,2.9,.89,.5,0,.86-.18,.86-.62,0-.62-.7-.62-1.8-1.01-1.32-.46-2.23-1.1-2.23-2.51,0-1.69,1.31-2.76,3.25-2.76,.9,0,2.02,.23,2.83,.64v2.28c-1.04-.59-2.19-.86-2.81-.86-.46,0-.77,.14-.77,.53,0,.56,.67,.56,1.73,.94,1.36,.48,2.3,1.15,2.3,2.61,0,1.75-1.38,2.82-3.39,2.82-.89,0-2-.2-2.88-.62v-2.31Z"/><path class="cls-3" d="M215.03,691.5h-2.76v-2.09h7.99v2.09h-2.76v6.6h-2.47v-6.6Z"/><path class="cls-3" d="M222.77,689.42h2.43l3.51,8.68h-2.69l-.61-1.77h-2.97l-.64,1.77h-2.55l3.51-8.68Zm1.18,2.64c-.17,.55-.34,1.06-.54,1.62l-.3,.83h1.68l-.29-.83c-.2-.59-.36-1.08-.53-1.62h-.02Z"/><path class="cls-3" d="M229.43,689.42h2.49c1.8,0,3.15,.3,4.08,1,.96,.72,1.49,1.9,1.49,3.36,0,1.3-.41,2.37-1.24,3.13-.86,.78-2.19,1.2-4.28,1.2h-2.54v-8.68Zm2.57,6.6c1.57,0,2.21-.31,2.58-.76,.32-.4,.44-.92,.44-1.49,0-.82-.25-1.4-.74-1.77-.53-.4-1.32-.49-2.29-.49h-.08v4.51h.1Z"/></g><g><path class="cls-3" d="M643.2,740.29c1.08,.62,2.3,.89,2.9,.89,.5,0,.86-.18,.86-.62,0-.62-.7-.62-1.8-1.01-1.32-.46-2.23-1.1-2.23-2.51,0-1.69,1.31-2.76,3.25-2.76,.9,0,2.01,.23,2.83,.64v2.28c-1.04-.59-2.19-.86-2.81-.86-.46,0-.77,.14-.77,.53,0,.56,.67,.56,1.73,.94,1.36,.48,2.3,1.15,2.3,2.61,0,1.75-1.38,2.82-3.39,2.82-.89,0-2-.2-2.88-.62v-2.31Z"/><path class="cls-3" d="M658.4,738.99c0,1.32-.25,2.23-.73,2.87-.65,.86-1.83,1.38-3.29,1.38s-2.67-.49-3.33-1.42c-.46-.64-.68-1.56-.68-2.83v-4.57h2.47v4.43c0,.84,.1,1.33,.34,1.67,.24,.34,.66,.58,1.26,.58,.54,0,.94-.19,1.19-.5,.28-.34,.41-.89,.41-1.74v-4.43h2.38v4.57Z"/><path class="cls-3" d="M663.4,739.96c-.48-.65-.9-1.24-1.33-1.86h-.02c.01,.74,.02,1.49,.02,2.22v2.78h-2.38v-8.68h2.31l2.3,3.14c.48,.65,.9,1.24,1.33,1.86h.02c-.01-.74-.02-1.49-.02-2.22v-2.78h2.37v8.68h-2.31l-2.3-3.14Z"/><path class="cls-3" d="M669.39,734.42h2.5c1.8,0,3.15,.3,4.08,1,.96,.72,1.49,1.9,1.49,3.36,0,1.3-.41,2.37-1.24,3.13-.86,.78-2.19,1.2-4.28,1.2h-2.54v-8.68Zm2.57,6.6c1.57,0,2.21-.31,2.58-.76,.32-.4,.44-.92,.44-1.49,0-.82-.25-1.4-.74-1.77-.53-.4-1.32-.49-2.29-.49h-.08v4.51h.1Z"/><path class="cls-3" d="M678.49,734.42h2.47v3.13h3.09v-3.13h2.47v8.68h-2.47v-3.47h-3.09v3.47h-2.47v-8.68Z"/><path class="cls-3" d="M692.24,734.28c2.62,0,4.64,1.97,4.64,4.47s-2.03,4.47-4.64,4.47-4.64-1.97-4.64-4.47,2.03-4.47,4.64-4.47Zm0,6.73c1.22,0,2.17-1,2.17-2.25s-.95-2.25-2.17-2.25-2.17,1-2.17,2.25,.95,2.25,2.17,2.25Z"/><path class="cls-3" d="M697.95,734.42h2.47v6.6h3.62v2.09h-6.09v-8.68Z"/><path class="cls-3" d="M704.9,743.1v-8.68h2.38l2.24,3.17,2.23-3.17h2.35v8.68h-2.47v-2.83c0-.68,.01-1.44,.02-2.04h-.02c-.36,.54-.76,1.1-1.14,1.65l-1.03,1.46-1.04-1.46c-.4-.55-.78-1.12-1.14-1.67h-.02c.01,.61,.02,1.37,.02,2.05v2.83h-2.38Z"/><path class="cls-3" d="M715.45,740.29c1.08,.62,2.3,.89,2.9,.89,.5,0,.86-.18,.86-.62,0-.62-.7-.62-1.8-1.01-1.32-.46-2.23-1.1-2.23-2.51,0-1.69,1.31-2.76,3.25-2.76,.9,0,2.01,.23,2.83,.64v2.28c-1.04-.59-2.2-.86-2.81-.86-.46,0-.77,.14-.77,.53,0,.56,.67,.56,1.73,.94,1.36,.48,2.3,1.15,2.3,2.61,0,1.75-1.38,2.82-3.39,2.82-.89,0-2-.2-2.88-.62v-2.31Z"/><path class="cls-3" d="M725.52,734.42h2.47v3.77h.02s2.51-3.77,2.51-3.77h2.9l-2.87,4.03,3.11,4.65h-3l-2.65-4.26h-.02v4.26h-2.47v-8.68Z"/><path class="cls-3" d="M733.35,734.42h2.65l1.2,3.39c.25,.72,.49,1.42,.72,2.11h.02c.24-.71,.5-1.45,.76-2.13l1.24-3.37h2.54l-3.32,8.68h-2.48l-3.32-8.68Z"/><path class="cls-3" d="M744.89,734.42h2.44l3.51,8.68h-2.69l-.61-1.77h-2.97l-.64,1.77h-2.55l3.51-8.68Zm1.18,2.64c-.17,.55-.34,1.06-.54,1.62l-.3,.83h1.68l-.29-.83c-.2-.59-.36-1.08-.53-1.62h-.02Z"/><path class="cls-3" d="M751.56,734.42h3.03c1.06,0,1.83,.13,2.43,.43,.84,.41,1.4,1.14,1.4,2.27,0,1.07-.52,1.88-1.59,2.34l2.3,3.65h-2.79l-1.93-3.3h-.38v3.3h-2.47v-8.68Zm3.08,3.69c.46,0,.78-.06,.97-.18,.23-.13,.35-.36,.35-.68,0-.37-.17-.6-.42-.72-.21-.1-.49-.14-1.06-.14h-.46v1.73h.61Z"/><path class="cls-3" d="M761.73,736.5h-2.76v-2.09h7.99v2.09h-2.76v6.6h-2.47v-6.6Z"/><path class="cls-3" d="M767.72,734.42h5.66v2.09h-3.19v1.1h2.7v1.97h-2.7v1.44h3.33v2.09h-5.8v-8.68Z"/><path class="cls-3" d="M774.63,734.42h3.03c1.06,0,1.84,.13,2.44,.43,.84,.41,1.4,1.14,1.4,2.27,0,1.07-.52,1.88-1.59,2.34l2.3,3.65h-2.79l-1.93-3.3h-.38v3.3h-2.47v-8.68Zm3.08,3.69c.46,0,.78-.06,.97-.18,.23-.13,.35-.36,.35-.68,0-.37-.17-.6-.42-.72-.2-.1-.49-.14-1.06-.14h-.46v1.73h.61Z"/><path class="cls-3" d="M782.66,734.42h5.66v2.09h-3.19v1.1h2.7v1.97h-2.7v1.44h3.33v2.09h-5.8v-8.68Z"/><path class="cls-3" d="M791.77,736.5h-2.76v-2.09h7.99v2.09h-2.76v6.6h-2.47v-6.6Z"/></g><path class="cls-3" d="M735.16,0c-16.6,45.07-57.6,105.72-62.63,101.23-6.48-5.77-115.53,115.77-204.58,164.65-89.04,48.88-106.95,162.12-221.45,270.35S48,879,48,879l-16.38,10H.31l-.31-1.21v-226.06l4.58-8.48,65.42-15.25,15-54,129-125,161-154.91,115.42-90.57,9.58-7.52-8.03-23.5S660,66,671,6c.37-2.03,.76-4.03,1.15-6h63.01Z"/><polygon class="cls-3" points="987.89 0 975.65 92.88 949.71 160.5 917 223 867 281 798 334 738 368 674 396 667.11 401.83 660.11 407.75 635 428.99 555 452 460.45 444.74 423 430 396 401 432 379 460.45 422 506.83 400.5 547 433 577 394 626.35 408 642.54 364.14 696 347 724.84 302.99 753.29 296.62 789.46 320.59 800.54 287.54 827.41 265.88 858.91 265.88 869 230 893 193 929.32 182.5 920 147 929.32 114.9 961.75 92.88 949 52 952.49 20.88 973 12 973 0 987.89 0"/><rect class="cls-2" x="71.27" y="199.51" width="162.83" height="2"/><rect class="cls-2" x="303.27" y="169.51" width="162.83" height="2"/><rect class="cls-2" x="935.2" y="814.52" width="64.8" height="2"/><path class="cls-3" d="M630.9,885.86c-1.47-2.15-35.9-52.76-35.56-70.35,.33-17.36,67.92-397.67,70.8-413.85l1.97,.35c-.7,3.96-70.44,396.33-70.76,413.54-.32,16.96,34.86,68.67,35.22,69.19l-1.65,1.13Z"/><g><path class="cls-3" d="M642.87,632.47l-.88-.15v.02c.6,.51,.83,1.28,.7,2.09-.27,1.65-1.74,2.79-3.38,2.52-1.81-.3-2.86-1.81-2.58-3.47,.14-.83,.56-1.47,1.28-1.8v-.02s-.79-.13-.79-.13l.18-1.06,5.65,.94-.18,1.06Zm-2.81-.49c-1.1-.18-2.15,.46-2.35,1.63-.18,1.06,.59,2.08,1.7,2.26,1.06,.18,2.13-.54,2.31-1.6,.18-1.1-.59-2.12-1.66-2.3Z"/><path class="cls-3" d="M644.52,622.55l-3.16-.53c-1.07-.18-1.75,.17-1.9,1.06-.16,.94,.3,1.43,1.43,1.62l3.18,.53-.18,1.06-3.29-.55c-1.11-.19-1.64,.26-1.77,1.03-.16,.94,.32,1.49,1.43,1.68l3.17,.53-.18,1.06-5.65-.94,.16-.98,.61,.1v-.02c-.46-.55-.62-1.01-.49-1.75,.12-.73,.6-1.41,1.24-1.6-.57-.51-.79-1.13-.64-2.03,.24-1.47,1.3-2.15,2.76-1.91l3.43,.57-.18,1.06Z"/><path class="cls-3" d="M645.7,615.48l-.88-.15v.02c.6,.51,.83,1.28,.7,2.09-.28,1.65-1.74,2.79-3.38,2.52-1.81-.3-2.86-1.81-2.58-3.47,.14-.83,.56-1.47,1.28-1.8v-.02s-.79-.13-.79-.13l.18-1.06,5.65,.94-.18,1.06Zm-2.81-.49c-1.1-.18-2.15,.46-2.35,1.63-.18,1.06,.59,2.08,1.7,2.26,1.06,.18,2.13-.54,2.31-1.6,.18-1.1-.59-2.12-1.66-2.3Z"/><path class="cls-3" d="M646.14,608.25c.52,.54,.7,1.29,.56,2.1-.27,1.62-1.9,2.79-3.43,2.53-1.7-.28-2.8-1.83-2.52-3.53,.12-.74,.56-1.46,1.13-1.83l-.65-.11,.18-1.06,4.91,.82c1.84,.31,2.78,1.63,2.46,3.54-.22,1.3-1.07,2.2-2.25,2.5l.2-1.18c.63-.3,.97-.79,1.09-1.49,.22-1.3-.38-2.1-1.67-2.31v.02Zm-2.08-.37c-1.33-.22-2.18,.68-2.34,1.66-.17,1.05,.59,2.09,1.69,2.27,1.08,.18,2.15-.56,2.32-1.62,.21-1.24-.75-2.16-1.67-2.31Z"/><path class="cls-3" d="M645.02,604.92c.98-.09,1.71-.73,1.85-1.6,.11-.66-.13-1.34-.68-1.77l.18-1.06c1.09,.63,1.67,1.82,1.47,3.03-.26,1.59-1.89,2.64-3.4,2.39-1.79-.3-2.81-1.85-2.56-3.35,.28-1.66,1.77-2.71,3.4-2.44,.17,.03,.34,.06,.53,.12l-.78,4.68Zm-.21-3.79c-.97-.08-1.81,.65-1.96,1.56-.14,.87,.4,1.85,1.35,2.09l.61-3.65Z"/><path class="cls-3" d="M648.35,599.53l-5.65-.94,.17-.99,.51,.08v-.02c-.33-.32-.5-.8-.42-1.55l1.09,.18c-.12,.92,.36,1.49,1.31,1.64l3.17,.53-.18,1.06Z"/><path class="cls-3" d="M648.9,596.23l-4.68-.78-.08,.5-.97-.16,.08-.5-.26-.04c-1.08-.18-1.51-1.04-1.34-2.09l.04-.23,.97,.16c-.12,.69,.08,1.03,.5,1.1l.26,.04,.16-.99,.97,.16-.16,.99,4.68,.78-.18,1.06Z"/><path class="cls-3" d="M647.91,587.52c.96-.03,1.71-.71,1.86-1.59,.11-.66-.14-1.37-.7-1.79l.18-1.09c1.12,.63,1.68,1.86,1.49,3.03-.12,.72-.51,1.34-1.12,1.75v.02s.66,.11,.66,.11l-.16,.97-.66-.11c.43,.66,.61,1.29,.48,2.11-.29,1.71-1.82,2.81-3.52,2.53-1.68-.28-2.71-1.83-2.43-3.48,.13-.77,.5-1.42,1.15-1.87v-.02s-.66-.11-.66-.11l.16-.97,.66,.11v-.02c-.48-.51-.63-1.25-.48-2.12,.24-1.46,1.81-2.56,3.35-2.31,.13,.02,.31,.06,.54,.12l-.78,4.71Zm-.65,.98c-1.12-.19-2.13,.51-2.32,1.66-.18,1.08,.53,2.05,1.65,2.24,1.15,.19,2.17-.47,2.36-1.58,.19-1.13-.57-2.13-1.69-2.32Zm.52-4.79c-1.04-.09-1.86,.53-2.03,1.55-.16,.97,.39,1.86,1.42,2.13l.61-3.68Z"/><path class="cls-3" d="M651.25,582.09l-7.55-1.26,.18-1.06,7.55,1.26-.18,1.06Z"/><path class="cls-3" d="M651.66,579.66l-7.55-1.26,.18-1.06,7.55,1.26-.18,1.06Z"/><path class="cls-3" d="M649.82,576.06c.98-.09,1.71-.73,1.85-1.6,.11-.66-.13-1.34-.68-1.77l.18-1.06c1.09,.63,1.67,1.82,1.47,3.03-.26,1.59-1.89,2.64-3.4,2.39-1.79-.3-2.81-1.85-2.56-3.35,.28-1.66,1.77-2.71,3.4-2.45,.17,.03,.34,.06,.53,.12l-.78,4.68Zm-.21-3.79c-.97-.08-1.81,.65-1.96,1.56-.14,.87,.39,1.85,1.35,2.09l.61-3.65Z"/><path class="cls-3" d="M653.93,566.02l-.81-.13v.02c.54,.54,.75,1.33,.61,2.16-.27,1.64-1.73,2.73-3.4,2.46-1.72-.29-2.84-1.73-2.56-3.41,.13-.77,.52-1.44,1.17-1.81v-.02s-2.59-.43-2.59-.43l.18-1.06,7.55,1.26-.16,.98Zm-5.16,1.16c-.18,1.08,.59,2.08,1.7,2.26,1.06,.18,2.13-.54,2.31-1.6,.18-1.07-.55-2.12-1.62-2.29-1.15-.19-2.19,.43-2.39,1.63Z"/><path class="cls-3" d="M652.08,562.5c.98-.09,1.71-.73,1.85-1.6,.11-.66-.13-1.34-.68-1.77l.18-1.06c1.09,.63,1.67,1.82,1.47,3.03-.26,1.59-1.89,2.64-3.4,2.39-1.79-.3-2.81-1.85-2.56-3.35,.28-1.66,1.77-2.71,3.4-2.45,.17,.03,.34,.06,.53,.12l-.78,4.68Zm-.21-3.79c-.97-.08-1.81,.65-1.96,1.56-.14,.87,.4,1.85,1.35,2.09l.61-3.65Z"/><path class="cls-3" d="M655.66,555.62l-6.03,1.3,.19-1.13,4.29-.81v-.02s-3.8-2.12-3.8-2.12l.19-1.13,5.28,3.17-.12,.75Z"/><path class="cls-3" d="M654.01,550.87c.98-.09,1.71-.73,1.85-1.6,.11-.66-.13-1.34-.68-1.77l.18-1.06c1.09,.63,1.67,1.82,1.47,3.03-.26,1.59-1.89,2.64-3.4,2.39-1.79-.3-2.81-1.85-2.56-3.35,.28-1.66,1.77-2.71,3.4-2.45,.17,.03,.34,.06,.53,.12l-.78,4.68Zm-.21-3.79c-.97-.08-1.81,.65-1.96,1.56-.14,.87,.4,1.85,1.35,2.09l.61-3.65Z"/><path class="cls-3" d="M651.06,544.3l-1.24-.21,.18-1.06,1.24,.21-.18,1.06Zm7.3,1.94c.03-.42-.05-.73-.91-.88l-5.74-.95,.18-1.06,6.02,1c1.22,.2,1.68,1.38,1.56,2.07l-1.11-.19Z"/></g><g><path class="cls-3" d="M771.37,577.79l.76-.46v-.02c-.8,.01-1.48-.42-1.91-1.12-.88-1.43-.51-3.25,.9-4.12,1.56-.96,3.34-.51,4.22,.93,.44,.71,.54,1.48,.22,2.2v.02s.7-.42,.7-.42l.56,.92-4.89,2.99-.56-.92Zm2.45-1.47c.95-.58,1.33-1.76,.7-2.77-.56-.92-1.81-1.19-2.77-.6-.92,.56-1.26,1.8-.7,2.72,.58,.95,1.84,1.22,2.76,.65Z"/><path class="cls-3" d="M776.62,586.37l2.74-1.67c.93-.57,1.21-1.27,.74-2.04-.5-.81-1.16-.89-2.14-.29l-2.75,1.69-.56-.92,2.84-1.74c.96-.59,1.06-1.27,.66-1.93-.5-.81-1.22-.92-2.18-.33l-2.74,1.68-.56-.92,4.89-2.99,.52,.85-.53,.32v.02c.72,.11,1.14,.36,1.53,1,.39,.63,.47,1.46,.11,2.02,.77,.01,1.33,.34,1.81,1.11,.78,1.27,.43,2.48-.83,3.25l-2.96,1.81-.56-.92Z"/><path class="cls-3" d="M780.37,592.48l.76-.46v-.02c-.8,.01-1.48-.42-1.91-1.12-.88-1.43-.51-3.25,.9-4.12,1.56-.96,3.34-.51,4.22,.93,.44,.71,.54,1.48,.22,2.2v.02s.7-.42,.7-.42l.56,.92-4.89,2.99-.56-.92Zm2.45-1.47c.95-.58,1.32-1.76,.7-2.77-.56-.92-1.8-1.19-2.77-.6-.92,.56-1.26,1.8-.7,2.72,.58,.95,1.84,1.22,2.76,.65Z"/><path class="cls-3" d="M784.77,598.23c-.74-.07-1.37-.52-1.8-1.22-.86-1.4-.39-3.35,.93-4.16,1.47-.9,3.31-.45,4.22,1.02,.39,.64,.54,1.47,.34,2.12l.57-.35,.56,.92-4.24,2.6c-1.59,.97-3.17,.59-4.18-1.07-.69-1.12-.64-2.36,.06-3.36l.63,1.02c-.27,.64-.21,1.24,.15,1.83,.69,1.12,1.66,1.34,2.78,.65v-.02Zm1.8-1.08c1.15-.7,1.2-1.94,.68-2.79-.56-.91-1.81-1.2-2.76-.61-.93,.57-1.25,1.83-.7,2.74,.65,1.07,1.98,1.14,2.78,.65Z"/><path class="cls-3" d="M787.8,600.02c-.68,.71-.81,1.67-.35,2.42,.35,.57,.98,.93,1.67,.89l.56,.92c-1.24,.24-2.45-.28-3.09-1.33-.84-1.38-.31-3.23,1-4.03,1.54-.95,3.33-.44,4.13,.86,.88,1.44,.44,3.21-.96,4.07-.15,.09-.29,.18-.47,.26l-2.48-4.05Zm2.64,2.73c.79-.58,.94-1.68,.46-2.46-.46-.75-1.51-1.14-2.39-.7l1.93,3.16Z"/><path class="cls-3" d="M788.81,606.27l4.89-2.99,.52,.86-.44,.27v.02c.47,.02,.92,.27,1.35,.89l-.94,.58c-.51-.78-1.25-.89-2.07-.38l-2.74,1.68-.56-.92Z"/><path class="cls-3" d="M790.65,609.27l6.53-4,.56,.92-2.32,1.42v.02c.79,.07,1.44,.52,1.85,1.18,.85,1.38,.39,3.25-1.03,4.11-1.37,.84-3.23,.49-4.07-.88-.43-.71-.55-1.53-.25-2.27v-.02s-.72,.43-.72,.43l-.56-.91Zm5.03,2.73c.93-.57,1.29-1.8,.71-2.74-.56-.91-1.81-1.17-2.74-.61-.97,.59-1.3,1.8-.73,2.74,.55,.9,1.8,1.19,2.75,.61Z"/><path class="cls-3" d="M794.36,615.34l4.89-2.99,.52,.86-.44,.27v.02c.47,.02,.92,.27,1.35,.89l-.94,.58c-.51-.78-1.25-.89-2.07-.38l-2.74,1.68-.56-.92Z"/><path class="cls-3" d="M797.36,620.51c-.84-1.38-.42-3.32,.96-4.16,1.49-.91,3.31-.41,4.23,1.08,.83,1.35,.55,3.27-1.02,4.2-1.32,.78-3.21,.44-4.17-1.12Zm4.32-2.61c-.56-.92-1.82-1.24-2.78-.65-.93,.57-1.27,1.83-.7,2.76,.59,.96,1.83,1.28,2.82,.68,.95-.58,1.25-1.82,.66-2.78Z"/><path class="cls-3" d="M802.82,627.7c-.74-.07-1.37-.52-1.8-1.22-.86-1.4-.39-3.35,.93-4.16,1.47-.9,3.31-.45,4.22,1.02,.39,.63,.53,1.47,.34,2.12l.56-.35,.56,.92-4.24,2.6c-1.59,.97-3.17,.59-4.18-1.07-.69-1.12-.64-2.36,.06-3.36l.63,1.02c-.27,.64-.21,1.23,.15,1.83,.69,1.12,1.66,1.34,2.78,.65v-.02Zm1.8-1.08c1.15-.7,1.2-1.94,.68-2.79-.56-.91-1.81-1.2-2.76-.61-.94,.57-1.25,1.83-.7,2.74,.65,1.07,1.98,1.14,2.78,.65Z"/><path class="cls-3" d="M805.84,634.08l.76-.46v-.02c-.8,.01-1.48-.42-1.91-1.12-.88-1.43-.51-3.25,.9-4.12,1.56-.96,3.34-.51,4.22,.93,.44,.72,.54,1.48,.22,2.2v.02s.7-.42,.7-.42l.56,.92-4.89,2.99-.56-.92Zm2.45-1.47c.95-.58,1.33-1.76,.7-2.77-.56-.92-1.8-1.19-2.77-.6-.92,.56-1.26,1.8-.7,2.72,.58,.95,1.84,1.22,2.76,.65Z"/><path class="cls-3" d="M809.6,640.22l.7-.43v-.02c-.77-.06-1.45-.51-1.89-1.23-.87-1.42-.48-3.2,.96-4.08,1.49-.91,3.28-.55,4.17,.9,.41,.66,.55,1.43,.3,2.13v.02s2.25-1.37,2.25-1.37l.56,.92-6.53,4-.52-.85Zm3.14-4.26c-.57-.94-1.81-1.19-2.77-.6-.92,.56-1.26,1.8-.7,2.72,.57,.93,1.8,1.24,2.73,.67,1-.61,1.37-1.76,.74-2.79Z"/><path class="cls-3" d="M813.3,641.67c-.68,.71-.81,1.67-.35,2.42,.35,.57,.98,.93,1.67,.89l.56,.92c-1.24,.24-2.45-.28-3.09-1.33-.84-1.38-.31-3.23,1-4.03,1.54-.95,3.33-.44,4.13,.86,.88,1.44,.44,3.21-.96,4.07-.15,.09-.29,.18-.47,.26l-2.48-4.05Zm2.64,2.73c.79-.58,.94-1.68,.46-2.46-.46-.75-1.51-1.14-2.39-.7l1.93,3.16Z"/></g><g><path class="cls-3" d="M419.77,196.21l-1.18-6.93h-.02s-2.3,5.44-2.3,5.44l-1.03-.43,2.98-7.05,1.12,.47,1.17,6.81h.02s2.27-5.36,2.27-5.36l1.03,.44-2.98,7.05-1.07-.45Z"/><path class="cls-3" d="M422.24,199.33l1.56-1.54,.08-6.06,1.07,.45-.18,4.75,3.32-3.43,1.07,.45-5.89,5.81-1.03-.44Z"/><path class="cls-3" d="M427.81,199.61l2.98-7.05,.99,.42-1.06,2.51h.02c.68-.39,1.47-.41,2.18-.1,1.5,.63,2.2,2.41,1.56,3.94-.62,1.48-2.33,2.28-3.82,1.65-.76-.32-1.34-.92-1.53-1.7h-.02s-.32,.75-.32,.75l-.98-.42Zm5.68-.71c.42-1,0-2.21-1.02-2.64-.98-.41-2.15,.1-2.58,1.1-.44,1.05,0,2.22,1,2.65,.97,.41,2.16-.08,2.59-1.11Z"/><path class="cls-3" d="M434.37,202.38l2.23-5.28,.92,.39-.2,.48h.02c.39-.24,.89-.3,1.61-.04l-.43,1.02c-.87-.33-1.53,0-1.9,.89l-1.25,2.96-.99-.42Z"/><path class="cls-3" d="M439.83,204.84c-1.49-.63-2.28-2.46-1.65-3.94,.68-1.61,2.45-2.27,4.07-1.58,1.46,.62,2.35,2.34,1.62,4.01-.62,1.4-2.36,2.23-4.04,1.51Zm1.99-4.64c-.99-.42-2.2,.06-2.64,1.09-.42,1,.04,2.23,1.04,2.65,1.04,.44,2.23-.02,2.68-1.09,.44-1.03-.04-2.21-1.08-2.65Z"/><path class="cls-3" d="M448.44,207.5c-.64,.38-1.42,.38-2.17,.06-1.52-.64-2.27-2.5-1.67-3.93,.67-1.59,2.43-2.3,4.02-1.63,.69,.29,1.29,.88,1.51,1.53l.26-.61,.99,.42-1.94,4.58c-.72,1.71-2.23,2.33-4.02,1.57-1.21-.51-1.89-1.55-1.91-2.77l1.11,.47c.15,.68,.54,1.13,1.19,1.4,1.21,.51,2.13,.12,2.64-1.09h-.02Zm.84-1.94c.52-1.24-.15-2.28-1.07-2.66-.98-.41-2.17,.08-2.6,1.11-.43,1.01,.05,2.22,1.03,2.64,1.15,.49,2.28-.23,2.64-1.09Z"/><path class="cls-3" d="M454.62,210.93l.35-.82h-.02c-.64,.46-1.44,.51-2.19,.19-1.54-.65-2.31-2.35-1.67-3.87,.71-1.69,2.42-2.36,3.98-1.7,.77,.33,1.3,.89,1.46,1.66h.02s.31-.74,.31-.74l.99,.42-2.23,5.28-.99-.42Zm1.13-2.62c.43-1.03,.05-2.2-1.04-2.66-.99-.42-2.16,.09-2.6,1.13-.42,.99,.02,2.2,1.02,2.62,1.03,.44,2.2-.08,2.62-1.08Z"/><path class="cls-3" d="M461.25,213.73l.32-.75h-.02c-.65,.39-1.47,.41-2.24,.09-1.53-.65-2.25-2.32-1.6-3.88,.68-1.61,2.34-2.36,3.92-1.69,.71,.3,1.28,.84,1.49,1.56h.02s1.02-2.41,1.02-2.41l.99,.42-2.98,7.05-.92-.39Zm.07-5.29c-1.01-.43-2.16,.09-2.6,1.13-.42,.99,.03,2.2,1.02,2.62,1,.42,2.19-.04,2.61-1.04,.46-1.08,.09-2.23-1.03-2.7Z"/><path class="cls-3" d="M465.1,212.75c-.14,.97,.32,1.83,1.13,2.17,.62,.26,1.34,.18,1.88-.25l.99,.42c-.87,.91-2.16,1.2-3.29,.72-1.49-.63-2.13-2.45-1.54-3.86,.7-1.67,2.45-2.3,3.85-1.71,1.55,.66,2.23,2.36,1.59,3.87-.07,.16-.13,.31-.24,.48l-4.38-1.85Zm3.73,.68c.3-.93-.22-1.91-1.06-2.27-.81-.34-1.89-.05-2.35,.83l3.41,1.44Z"/></g><polygon class="cls-3" points="907.85 801.6 841.2 711.6 655.7 402.34 657.42 401.31 842.86 710.49 909.46 800.4 907.85 801.6"/><polygon class="cls-3" points="498.62 217.93 424.54 187.87 410.1 176.14 411.36 174.59 425.57 186.13 499.38 216.07 498.62 217.93"/><polygon class="cls-3" points="369.36 143.05 355.07 131.45 341.82 143.03 340.5 141.52 355.03 128.84 370.62 141.5 369.36 143.05"/><polygon class="cls-3" points="280.03 196.98 268.67 192.94 269.33 191.06 279.6 194.71 302.61 174.61 303.92 176.12 280.03 196.98"/><circle class="cls-2" cx="914" cy="801" r="16"/><circle class="cls-1" cx="914" cy="801" r="10"/><circle class="cls-1" cx="257" cy="187" r="10"/><circle class="cls-1" cx="277" cy="157" r="10"/></g></svg>