<svg xmlns="http://www.w3.org/2000/svg" xmlns:xlink="http://www.w3.org/1999/xlink" width="1227" height="889" xmlns:v="https://vecta.io/nano"><path d="M0 0h1227v889H0z" fill="#5e35c2"/><g fill="#decefb"><use xlink:href="#B"/><use xlink:href="#C"/><path d="M189.64 37.42h2.47v3.13h3.09v-3.13h2.47v8.68h-2.47v-3.47h-3.09v3.47h-2.47v-8.68zm20.2 4.57c0 1.32-.25 2.23-.73 2.87-.65.86-1.83 1.38-3.29 1.38s-2.67-.49-3.33-1.42c-.46-.64-.68-1.56-.68-2.83v-4.57h2.47v4.43c0 .84.1 1.33.34 1.67s.66.58 1.26.58c.54 0 .94-.19 1.19-.5.28-.34.41-.89.41-1.74v-4.43h2.38V42z"/><use xlink:href="#D"/><path d="M220.84,37.42h2.47v8.68h-2.47v-8.68Z"/><use xlink:href="#E"/><use xlink:href="#F"/><use xlink:href="#G"/><use xlink:href="#H"/><path d="M255.79 37.42h2.47v8.68h-2.47v-8.68zm5.99 2.08h-2.76v-2.09h7.99v2.09h-2.76v6.6h-2.47v-6.6z"/><use xlink:href="#F" x="34.13"/><path d="M276.88 39.5h-2.76v-2.09h7.99v2.09h-2.76v6.6h-2.47v-6.6zm52.34-2.08h2.47v8.68h-2.47v-8.68z"/><use xlink:href="#D" x="121.92"/><use xlink:href="#I"/><use xlink:href="#G" x="111.3"/><use xlink:href="#F" x="126.24"/><use xlink:href="#C" x="187.79"/><path d="M379.24 42.21l-3.37-4.8h2.88l.79 1.22.96 1.51h.02l.94-1.49.8-1.25h2.81l-3.36 4.75v3.93h-2.47v-3.89z"/><use xlink:href="#B" x="287" y="-17"/><use xlink:href="#J"/><use xlink:href="#K"/><use xlink:href="#D" x="276.33" y="-17"/><path d="M499.68 25.21l-3.37-4.8h2.88l.79 1.22.96 1.51h.02l.94-1.49.8-1.25h2.81l-3.36 4.75v3.93h-2.47v-3.89zm8.67-2.71h-2.76v-2.09h7.99v2.09h-2.76v6.6h-2.47v-6.6z"/><use xlink:href="#L"/><use xlink:href="#E" x="298.94" y="-17"/><use xlink:href="#J" x="23.63" y="72"/><use xlink:href="#M"/><use xlink:href="#N"/><use xlink:href="#N" x="10.57"/><path d="M531.73 92.42h5.66v2.09h-3.19v1.1h2.7v1.97h-2.7v1.44h3.33v2.09h-5.8v-8.68zm6.91 0h2.47v6.6h3.62v2.09h-6.09v-8.68zm6.94 0h2.47v3.13h3.09v-3.13h2.47v8.68h-2.47v-3.47h-3.09v3.47h-2.47v-8.68z"/><use xlink:href="#L" x="40.89" y="72"/><path d="M565.05 92.42h2.47v6.6h3.62v2.09h-6.09v-8.68zm6.95 8.68v-8.68h2.37l2.24 3.17 2.23-3.17h2.35v8.68h-2.47v-2.83l.02-2.04h-.02l-1.14 1.65-1.03 1.46-1.04-1.46-1.14-1.67h-.02l.02 2.05v2.83H572z"/></g><g fill="#e7e0d3"><use xlink:href="#O"/><path d="M319.73,145.78h10.98v4.05h-6.19v2.14h5.24v3.82h-5.24v2.79h6.47v4.05h-11.26v-16.85Z"/><use xlink:href="#P"/><use xlink:href="#Q"/><use xlink:href="#P" x="38.3"/><path d="M402.33 144.9h3.42l-7.98 18.62h-3.42l7.98-18.62zm7.94.88h5.14l2.33 6.59 1.4 4.1h.05l1.47-4.14 2.4-6.54h4.93l-6.45 16.85h-4.82l-6.45-16.85z"/><use xlink:href="#Q" x="76.15"/><use xlink:href="#O" x="143.96"/><use xlink:href="#R"/><path d="M97.33 178.74c5.07 0 9.01 3.82 9.01 8.68s-3.93 8.68-9.01 8.68-9.01-3.82-9.01-8.68 3.93-8.68 9.01-8.68zm0 13.05c2.37 0 4.21-1.93 4.21-4.38s-1.84-4.37-4.21-4.37-4.21 1.93-4.21 4.37 1.84 4.38 4.21 4.38zm8.98-12.79h5.03l1.63 5.98 1.14 4.35h.05l1.23-4.37 1.75-5.96h3.51l1.7 5.93 1.21 4.4h.05l1.23-4.47 1.68-5.86h4.84l-5.14 16.85h-5.07l-1.16-4.07-1.19-4.37h-.05l-1.23 4.44-1.16 4h-4.96L106.33 179z"/><use xlink:href="#S"/><path d="M167.04 187.86c0 2.56-.49 4.33-1.42 5.56-1.26 1.68-3.56 2.68-6.38 2.68s-5.19-.95-6.47-2.75c-.88-1.23-1.33-3.03-1.33-5.49v-8.87h4.79v8.59c0 1.63.19 2.58.65 3.23.47.65 1.28 1.12 2.44 1.12 1.05 0 1.81-.37 2.3-.98.54-.65.79-1.72.79-3.37v-8.59h4.61v8.87z"/><use xlink:href="#S" x="36.76"/><use xlink:href="#R" x="117.08"/><path d="M205.99 179h10.98v4.05h-6.19v2.14h5.24v3.82h-5.24v2.79h6.47v4.05h-11.26V179zm13.4 0h5.89c2.05 0 3.56.26 4.72.84 1.63.79 2.72 2.21 2.72 4.4 0 2.07-1 3.65-3.09 4.54l4.47 7.07h-5.42l-3.75-6.4h-.74v6.4h-4.79V179zm5.98 7.17c.88 0 1.51-.12 1.88-.35.44-.26.67-.7.67-1.33 0-.72-.33-1.16-.81-1.4-.4-.19-.95-.28-2.05-.28h-.88v3.35h1.19z"/></g><g fill="#decefb"><path d="M109.37 240.5h-2.76v-2.09h7.99v2.09h-2.76v6.6h-2.47v-6.6zm5.99-2.08h2.47v8.68h-2.47v-8.68z"/><use xlink:href="#E" x="-105.48" y="201"/><use xlink:href="#L" x="-386.48" y="218"/><path d="M137.68 238.42h2.47v6.6h3.62v2.09h-6.09v-8.68zm6.94 0h2.47v8.68h-2.47v-8.68zm523.69 35.3c-.77.36-1.69.52-2.52.52-2.91 0-4.87-1.94-4.87-4.46s2.03-4.49 4.87-4.49c.86 0 1.7.18 2.4.49v2.42c-.64-.4-1.5-.72-2.35-.72-1.46 0-2.45.95-2.45 2.27s.91 2.29 2.49 2.29c.85 0 1.69-.3 2.42-.76v2.43zm1.1-8.3h2.47v3.13h3.09v-3.13h2.47v8.68h-2.47v-3.47h-3.09v3.47h-2.47v-8.68z"/><use xlink:href="#T"/><path d="M686.84,265.42h2.47v8.68h-2.47v-8.68Z"/><use xlink:href="#H" x="442.1" y="228"/><path d="M700.04 267.5h-2.76v-2.09h7.99v2.09h-2.76v6.6h-2.47v-6.6zm5.99-2.08h2.47v8.68h-2.47v-8.68z"/><use xlink:href="#U"/><path d="M723.09 270.96l-1.33-1.86h-.02l.02 2.22v2.78h-2.38v-8.68h2.31l2.3 3.14 1.33 1.86h.02l-.02-2.22v-2.78h2.37v8.68h-2.31l-2.3-3.14zm5.99-5.54h2.47v8.68h-2.47v-8.68z"/><use xlink:href="#V"/></g><g fill="#e7e0d3"><path d="M939.16 807.25l-.02-.05 6.93-12.71-.02-.05h-6.21v-4.05h13.85l.02.05-6.93 12.71.02.05h6.75v4.05h-14.38zm16.45-16.85h10.98v4.05h-6.19v2.14h5.24v3.82h-5.24v2.79h6.47v4.05h-11.26V790.4zm13.4 0h5.21c2.68 0 4.33.3 5.49.95 1.21.67 2.02 1.77 2.02 3.28s-.91 2.61-2.56 3.23v.05c2.35.79 3.26 2.28 3.26 4.14 0 1.96-1 3.47-2.93 4.33-1.28.58-2.98.86-5.03.86H969v-16.85zm5.82 6.73c1.44 0 2.12-.44 2.12-1.47 0-.54-.19-.93-.7-1.19-.35-.19-.88-.26-1.88-.26h-.56v2.91h1.02zm-.33 6.31c1.37 0 2.07-.12 2.47-.33.47-.26.67-.67.67-1.28 0-1.14-.79-1.63-2.33-1.63h-1.51v3.23h.7zm25.11-4.17c0 2.56-.49 4.33-1.42 5.56-1.26 1.67-3.56 2.68-6.38 2.68s-5.19-.95-6.47-2.75c-.88-1.23-1.33-3.02-1.33-5.49v-8.87h4.79v8.59c0 1.63.19 2.58.65 3.23s1.28 1.12 2.44 1.12c1.05 0 1.82-.37 2.3-.98.54-.65.79-1.72.79-3.37v-8.59h4.61v8.87z"/><circle cx="277" cy="157" r="16"/><circle cx="257" cy="187" r="16"/></g><g fill="#decefb"><use xlink:href="#W"/><use xlink:href="#X"/><path d="M1002.64,700.5h-2.76v-2.09h7.99v2.09h-2.76v6.6h-2.47v-6.6Z"/><use xlink:href="#V" x="278.53" y="433"/><use xlink:href="#Y"/><use xlink:href="#V" x="298.62" y="433"/><use xlink:href="#J" x="571.97" y="678"/><path d="M1049.4,698.42h5.66v2.09h-3.19v1.1h2.7v1.97h-2.7v1.44h3.33v2.09h-5.8v-8.68Z"/><use xlink:href="#T" x="377.5" y="433"/><use xlink:href="#Z"/><path d="M625.92 506.57v-19.64h5.37l5.07 7.16 5.05-7.16h5.32v19.64h-5.59v-6.4l.05-4.61-.05-.03-2.58 3.77-2.33 3.31-2.36-3.31-2.58-3.77-.05.03.05 4.61v6.4h-5.37z"/><use xlink:href="#Z" x="45.42"/><path d="M687.24 505.46c-1.82.87-4.23 1.41-6.59 1.41-6.67 0-11.12-4.29-11.12-10.01s4.64-10.23 11.01-10.23c2.31 0 4.42.57 6.05 1.38v5.4c-1.74-1.06-3.85-1.82-5.83-1.82-3.5 0-5.64 2.31-5.64 5.26s2.09 5.29 5.53 5.29c.41 0 .9-.05 1.19-.14v-2.09h-2.69v-4.1h8.08v9.63zm2.97-18.53h12.8v4.72h-7.22v2.5h6.1v4.45h-6.1v3.26h7.54v4.72H690.2v-19.64z"/><use xlink:href="#a"/><path d="M723.99 486.93h6.08c3.12 0 5.05.35 6.4 1.11 1.41.79 2.36 2.06 2.36 3.83s-1.06 3.04-2.98 3.77v.05c2.74.92 3.8 2.66 3.8 4.83 0 2.28-1.17 4.04-3.42 5.05-1.49.68-3.47 1-5.86 1h-6.38v-19.64zm6.78 7.84c1.68 0 2.47-.52 2.47-1.71 0-.62-.22-1.08-.81-1.38-.41-.22-1.03-.3-2.2-.3h-.65v3.39h1.19zm-.38 7.35c1.6 0 2.41-.14 2.88-.38.54-.3.79-.79.79-1.49 0-1.33-.92-1.9-2.71-1.9h-1.76v3.77h.81z"/><use xlink:href="#a" x="35.81"/><path d="M769.63,486.63c5.92,0,10.5,4.45,10.5,10.12s-4.58,10.12-10.5,10.12-10.5-4.45-10.5-10.12,4.58-10.12,10.5-10.12Zm0,15.22c2.77,0,4.91-2.25,4.91-5.1s-2.14-5.1-4.91-5.1-4.91,2.25-4.91,5.1,2.14,5.1,4.91,5.1Z"/><use xlink:href="#B" x="771" y="250"/><path d="M952.83,287.42h2.47v6.6h3.62v2.09h-6.09v-8.68Z"/><use xlink:href="#W" x="-23.5" y="-411"/><path d="M968.47 287.42h2.65l1.2 3.39.72 2.11h.02l.75-2.13 1.24-3.37h2.54l-3.32 8.68h-2.48l-3.32-8.68zm9.74 0h5.66v2.09h-3.19v1.1h2.7v1.97h-2.7v1.44h3.33v2.09h-5.8v-8.68z"/><use xlink:href="#b"/><use xlink:href="#Y" x="-27.83" y="-411"/><use xlink:href="#V" x="270.79" y="22"/><use xlink:href="#T" x="334.42" y="22"/><use xlink:href="#B" x="848.04" y="250"/><path d="M1029.87 287.42h5.66v2.09h-3.19v1.1h2.7v1.97h-2.7v1.44h3.33v2.09h-5.8v-8.68zm10.61 5.54l-1.33-1.86h-.02l.02 2.22v2.78h-2.37v-8.68h2.32l2.3 3.14 1.33 1.86h.02l-.02-2.22v-2.78h2.38v8.68h-2.31l-2.3-3.14zM162.22 689.42h2.47v3.13h3.09v-3.13h2.47v8.68h-2.47v-3.47h-3.09v3.47h-2.47v-8.68z"/><use xlink:href="#M" x="-329.44" y="597"/><use xlink:href="#E" x="-44.58" y="652"/><use xlink:href="#D" x="-22.08" y="652"/><path d="M198.76,689.42h5.66v2.09h-3.19v1.1h2.7v1.97h-2.7v1.44h3.33v2.09h-5.8v-8.68Z"/><use xlink:href="#H" x="-42.91" y="652"/><path d="M215.03,691.5h-2.76v-2.09h7.99v2.09h-2.76v6.6h-2.47v-6.6Z"/><use xlink:href="#M" x="-281.15" y="597"/><use xlink:href="#I" x="-113.33" y="652"/><use xlink:href="#K" x="165.79" y="714"/><path d="M658.4 738.99c0 1.32-.25 2.23-.73 2.87-.65.86-1.83 1.38-3.29 1.38s-2.67-.49-3.33-1.42c-.46-.64-.68-1.56-.68-2.83v-4.57h2.47v4.43c0 .84.1 1.33.34 1.67s.66.58 1.26.58c.54 0 .94-.19 1.19-.5.28-.34.41-.89.41-1.74v-4.43h2.38V739zm5 .97l-1.33-1.86h-.02l.02 2.22v2.78h-2.38v-8.68H662l2.3 3.14 1.33 1.86h.02l-.02-2.22v-2.78H668v8.68h-2.31l-2.3-3.14zm5.99-5.54h2.5c1.8 0 3.15.3 4.08 1 .96.72 1.49 1.9 1.49 3.36 0 1.3-.41 2.37-1.24 3.13-.86.78-2.19 1.2-4.28 1.2h-2.54v-8.68zm2.57 6.6c1.57 0 2.21-.31 2.58-.76.32-.4.44-.92.44-1.49 0-.82-.25-1.4-.74-1.77-.53-.4-1.32-.49-2.29-.49h-.08v4.51h.1zm6.53-6.6h2.47v3.13h3.09v-3.13h2.47v8.68h-2.47v-3.47h-3.09v3.47h-2.47v-8.68zm13.75-.14c2.62 0 4.64 1.97 4.64 4.47s-2.03 4.47-4.64 4.47-4.64-1.97-4.64-4.47 2.03-4.47 4.64-4.47zm0 6.73c1.22 0 2.17-1 2.17-2.25s-.95-2.25-2.17-2.25-2.17 1-2.17 2.25.95 2.25 2.17 2.25zm5.71-6.59h2.47v6.6h3.62v2.09h-6.09v-8.68z"/><use xlink:href="#Y" x="-316.07" y="36"/><use xlink:href="#X" x="-277.8" y="36"/><use xlink:href="#B" x="552.3" y="697"/><path d="M733.35 734.42H736l1.2 3.39.72 2.11h.02l.76-2.13 1.24-3.37h2.54l-3.32 8.68h-2.48l-3.32-8.68z"/><use xlink:href="#U" x="32.17" y="469"/><path d="M751.56 734.42h3.03c1.06 0 1.83.13 2.43.43.84.41 1.4 1.14 1.4 2.27 0 1.07-.52 1.88-1.59 2.34l2.3 3.65h-2.79l-1.93-3.3h-.38v3.3h-2.47v-8.68zm3.08 3.69c.46 0 .78-.06.97-.18.23-.13.35-.36.35-.68 0-.37-.17-.6-.42-.72-.21-.1-.49-.14-1.06-.14h-.46v1.73h.61zm7.09-1.61h-2.76v-2.09h7.99v2.09h-2.76v6.6h-2.47v-6.6zm5.99-2.08h5.66v2.09h-3.19v1.1h2.7v1.97h-2.7v1.44h3.33v2.09h-5.8v-8.68z"/><use xlink:href="#b" x="-210.49" y="447"/><path d="M782.66 734.42h5.66v2.09h-3.19v1.1h2.7v1.97h-2.7v1.44h3.33v2.09h-5.8v-8.68zm9.11 2.08h-2.76v-2.09H797v2.09h-2.76v6.6h-2.47v-6.6zM735.16 0c-16.6 45.07-57.6 105.72-62.63 101.23C666.05 95.46 557 217 467.95 265.88 378.91 314.76 361 428 246.5 536.23S48 879 48 879l-16.38 10H.31L0 887.79V661.73l4.58-8.48L70 638l15-54 129-125 161-154.91 115.42-90.57L500 206l-8.03-23.5S660 66 671 6l1.15-6h63.01zm252.73 0l-12.24 92.88-25.94 67.62L917 223l-50 58-69 53-60 34-64 28-6.89 5.83-7 5.92L635 428.99 555 452l-94.55-7.26L423 430l-27-29 36-22 28.45 43 46.38-21.5L547 433l30-39 49.35 14 16.19-43.86L696 347l28.84-44.01 28.45-6.37 36.17 23.97 11.08-33.05 26.87-21.66h31.5L869 230l24-37 36.32-10.5L920 147l9.32-32.1 32.43-22.02L949 52l3.49-31.12L973 12V0h14.89z"/></g><path d="M71.27 199.51H234.1v2H71.27zm232-30H466.1v2H303.27zM935.2 814.52h64.8v2h-64.8z" fill="#e7e0d3"/><g fill="#decefb"><path d="M630.9 885.86c-1.47-2.15-35.9-52.76-35.56-70.35.33-17.36 67.92-397.67 70.8-413.85l1.97.35-70.76 413.54c-.32 16.96 34.86 68.67 35.22 69.19l-1.65 1.13zm11.97-253.39l-.88-.15v.02c.6.51.83 1.28.7 2.09-.27 1.65-1.74 2.79-3.38 2.52-1.81-.3-2.86-1.81-2.58-3.47.14-.83.56-1.47 1.28-1.8v-.02l-.79-.13.18-1.06 5.65.94-.18 1.06zm-2.81-.49c-1.1-.18-2.15.46-2.35 1.63-.18 1.06.59 2.08 1.7 2.26 1.06.18 2.13-.54 2.31-1.6a2.02 2.02 0 0 0-1.66-2.3zm4.46-9.43l-3.16-.53c-1.07-.18-1.75.17-1.9 1.06-.16.94.3 1.43 1.43 1.62l3.18.53-.18 1.06-3.29-.55c-1.11-.19-1.64.26-1.77 1.03-.16.94.32 1.49 1.43 1.68l3.17.53-.18 1.06-5.65-.94.16-.98.61.1v-.02c-.46-.55-.62-1.01-.49-1.75.12-.73.6-1.41 1.24-1.6-.57-.51-.79-1.13-.64-2.03.24-1.47 1.3-2.15 2.76-1.91l3.43.57-.18 1.06zm1.18-7.07l-.88-.15v.02c.6.51.83 1.28.7 2.09-.28 1.65-1.74 2.79-3.38 2.52-1.81-.3-2.86-1.81-2.58-3.47.14-.83.56-1.47 1.28-1.8v-.02l-.79-.13.18-1.06 5.65.94-.18 1.06zm-2.81-.49c-1.1-.18-2.15.46-2.35 1.63-.18 1.06.59 2.08 1.7 2.26 1.06.18 2.13-.54 2.31-1.6a2.02 2.02 0 0 0-1.66-2.3zm3.25-6.74c.52.54.7 1.29.56 2.1-.27 1.62-1.9 2.79-3.43 2.53-1.7-.28-2.8-1.83-2.52-3.53.12-.74.56-1.46 1.13-1.83l-.65-.11.18-1.06 4.91.82c1.84.31 2.78 1.63 2.46 3.54-.22 1.3-1.07 2.2-2.25 2.5l.2-1.18c.63-.3.97-.79 1.09-1.49.22-1.3-.38-2.1-1.67-2.31v.02zm-2.08-.37c-1.33-.22-2.18.68-2.34 1.66-.17 1.05.59 2.09 1.69 2.27 1.08.18 2.15-.56 2.32-1.62.21-1.24-.75-2.16-1.67-2.31zm.96-2.96c.98-.09 1.71-.73 1.85-1.6.11-.66-.13-1.34-.68-1.77l.18-1.06c1.09.63 1.67 1.82 1.47 3.03-.26 1.59-1.89 2.64-3.4 2.39-1.79-.3-2.81-1.85-2.56-3.35.28-1.66 1.77-2.71 3.4-2.44l.53.12-.78 4.68zm-.21-3.79c-.97-.08-1.81.65-1.96 1.56-.14.87.4 1.85 1.35 2.09l.61-3.65zm3.54-1.6l-5.65-.94.17-.99.51.08v-.02c-.33-.32-.5-.8-.42-1.55l1.09.18c-.12.92.36 1.49 1.31 1.64l3.17.53-.18 1.06zm.55-3.3l-4.68-.78-.08.5-.97-.16.08-.5-.26-.04c-1.08-.18-1.51-1.04-1.34-2.09l.04-.23.97.16c-.12.69.08 1.03.5 1.1l.26.04.16-.99.97.16-.16.99 4.68.78-.18 1.06z"/><path d="M647.91 587.52c.96-.03 1.71-.71 1.86-1.59.11-.66-.14-1.37-.7-1.79l.18-1.09c1.12.63 1.68 1.86 1.49 3.03a2.59 2.59 0 0 1-1.12 1.75v.02l.66.11-.16.97-.66-.11c.43.66.61 1.29.48 2.11-.29 1.71-1.82 2.81-3.52 2.53-1.68-.28-2.71-1.83-2.43-3.48.13-.77.5-1.42 1.15-1.87v-.02l-.66-.11.16-.97.66.11v-.02c-.48-.51-.63-1.25-.48-2.12.24-1.46 1.81-2.56 3.35-2.31a5.76 5.76 0 0 1 .54.12l-.78 4.71zm-.65.98c-1.12-.19-2.13.51-2.32 1.66-.18 1.08.53 2.05 1.65 2.24 1.15.19 2.17-.47 2.36-1.58.19-1.13-.57-2.13-1.69-2.32zm.52-4.79c-1.04-.09-1.86.53-2.03 1.55-.16.97.39 1.86 1.42 2.13l.61-3.68zm3.47-1.62l-7.55-1.26.18-1.06 7.55 1.26-.18 1.06zm.41-2.43l-7.55-1.26.18-1.06 7.55 1.26-.18 1.06zm-1.84-3.6c.98-.09 1.71-.73 1.85-1.6.11-.66-.13-1.34-.68-1.77l.18-1.06c1.09.63 1.67 1.82 1.47 3.03-.26 1.59-1.89 2.64-3.4 2.39-1.79-.3-2.81-1.85-2.56-3.35a2.93 2.93 0 0 1 3.4-2.45l.53.12-.78 4.68zm-.21-3.79c-.97-.08-1.81.65-1.96 1.56-.14.87.39 1.85 1.35 2.09l.61-3.65zm4.32-6.25l-.81-.13v.02c.54.54.75 1.33.61 2.16a2.92 2.92 0 0 1-3.4 2.46c-1.72-.29-2.84-1.73-2.56-3.41.13-.77.52-1.44 1.17-1.81v-.02l-2.59-.43.18-1.06 7.55 1.26-.16.98zm-5.16 1.16c-.18 1.08.59 2.08 1.7 2.26 1.06.18 2.13-.54 2.31-1.6.18-1.07-.55-2.12-1.62-2.29-1.15-.19-2.19.43-2.39 1.63z"/><use xlink:href="#c"/><path d="M655.66 555.62l-6.03 1.3.19-1.13 4.29-.81v-.02l-3.8-2.12.19-1.13 5.28 3.17-.12.75z"/><use xlink:href="#c" x="1.93" y="-11.63"/><path d="M651.06 544.3l-1.24-.21.18-1.06 1.24.21-.18 1.06zm7.3 1.94c.03-.42-.05-.73-.91-.88l-5.74-.95.18-1.06 6.02 1c1.22.2 1.68 1.38 1.56 2.07l-1.11-.19zm113.01 31.55l.76-.46v-.02c-.8.01-1.48-.42-1.91-1.12-.88-1.43-.51-3.25.9-4.12 1.56-.96 3.34-.51 4.22.93.44.71.54 1.48.22 2.2v.02l.7-.42.56.92-4.89 2.99-.56-.92zm2.45-1.47c.95-.58 1.33-1.76.7-2.77-.56-.92-1.81-1.19-2.77-.6-.92.56-1.26 1.8-.7 2.72.58.95 1.84 1.22 2.76.65zm2.8 10.05l2.74-1.67c.93-.57 1.21-1.27.74-2.04-.5-.81-1.16-.89-2.14-.29l-2.75 1.69-.56-.92 2.84-1.74c.96-.59 1.06-1.27.66-1.93-.5-.81-1.22-.92-2.18-.33l-2.74 1.68-.56-.92 4.89-2.99.52.85-.53.32v.02c.72.11 1.14.36 1.53 1 .39.63.47 1.46.11 2.02.77.01 1.33.34 1.81 1.11.78 1.27.43 2.48-.83 3.25l-2.96 1.81-.56-.92zm3.75 6.11l.76-.46V592c-.8.01-1.48-.42-1.91-1.12-.88-1.43-.51-3.25.9-4.12 1.56-.96 3.34-.51 4.22.93.44.71.54 1.48.22 2.2v.02l.7-.42.56.92-4.89 2.99-.56-.92zm2.45-1.47c.95-.58 1.32-1.76.7-2.77-.56-.92-1.8-1.19-2.77-.6-.92.56-1.26 1.8-.7 2.72.58.95 1.84 1.22 2.76.65zm1.95 7.22c-.74-.07-1.37-.52-1.8-1.22-.86-1.4-.39-3.35.93-4.16 1.47-.9 3.31-.45 4.22 1.02.39.64.54 1.47.34 2.12l.57-.35.56.92-4.24 2.6c-1.59.97-3.17.59-4.18-1.07-.69-1.12-.64-2.36.06-3.36l.63 1.02c-.27.64-.21 1.24.15 1.83.69 1.12 1.66 1.34 2.78.65v-.02zm1.8-1.08c1.15-.7 1.2-1.94.68-2.79-.56-.91-1.81-1.2-2.76-.61-.93.57-1.25 1.83-.7 2.74.65 1.07 1.98 1.14 2.78.65z"/><use xlink:href="#d"/><use xlink:href="#e"/><path d="M790.65 609.27l6.53-4 .56.92-2.32 1.42v.02c.79.07 1.44.52 1.85 1.18.85 1.38.39 3.25-1.03 4.11-1.37.84-3.23.49-4.07-.88-.43-.71-.55-1.53-.25-2.27v-.02l-.72.43-.56-.91zm5.03 2.73c.93-.57 1.29-1.8.71-2.74-.56-.91-1.81-1.17-2.74-.61-.97.59-1.3 1.8-.73 2.74.55.9 1.8 1.19 2.75.61z"/><use xlink:href="#e" x="5.55" y="9.07"/><path d="M797.36 620.51c-.84-1.38-.42-3.32.96-4.16 1.49-.91 3.31-.41 4.23 1.08.83 1.35.55 3.27-1.02 4.2-1.32.78-3.21.44-4.17-1.12zm4.32-2.61c-.56-.92-1.82-1.24-2.78-.65-.93.57-1.27 1.83-.7 2.76.59.96 1.83 1.28 2.82.68.95-.58 1.25-1.82.66-2.78zm1.14 9.8c-.74-.07-1.37-.52-1.8-1.22-.86-1.4-.39-3.35.93-4.16 1.47-.9 3.31-.45 4.22 1.02.39.63.53 1.47.34 2.12l.56-.35.56.92-4.24 2.6c-1.59.97-3.17.59-4.18-1.07-.69-1.12-.64-2.36.06-3.36l.63 1.02c-.27.64-.21 1.23.15 1.83.69 1.12 1.66 1.34 2.78.65v-.02zm1.8-1.08c1.15-.7 1.2-1.94.68-2.79-.56-.91-1.81-1.2-2.76-.61-.94.57-1.25 1.83-.7 2.74.65 1.07 1.98 1.14 2.78.65zm1.22 7.46l.76-.46v-.02c-.8.01-1.48-.42-1.91-1.12-.88-1.43-.51-3.25.9-4.12 1.56-.96 3.34-.51 4.22.93.44.72.54 1.48.22 2.2v.02l.7-.42.56.92-4.89 2.99-.56-.92zm2.45-1.47c.95-.58 1.33-1.76.7-2.77-.56-.92-1.8-1.19-2.77-.6-.92.56-1.26 1.8-.7 2.72.58.95 1.84 1.22 2.76.65zm1.31 7.61l.7-.43v-.02c-.77-.06-1.45-.51-1.89-1.23-.87-1.42-.48-3.2.96-4.08 1.49-.91 3.28-.55 4.17.9.41.66.55 1.43.3 2.13v.02l2.25-1.37.56.92-6.53 4-.52-.85zm3.14-4.26c-.57-.94-1.81-1.19-2.77-.6-.92.56-1.26 1.8-.7 2.72.57.93 1.8 1.24 2.73.67 1-.61 1.37-1.76.74-2.79z"/><use xlink:href="#d" x="25.5" y="41.65"/><path d="M419.77 196.21l-1.18-6.93h-.02l-2.3 5.44-1.03-.43 2.98-7.05 1.12.47 1.17 6.81h.02l2.27-5.36 1.03.44-2.98 7.05-1.07-.45zm2.47 3.12l1.56-1.54.08-6.06 1.07.45-.18 4.75 3.32-3.43 1.07.45-5.89 5.81-1.03-.44zm5.57.28l2.98-7.05.99.42-1.06 2.51h.02c.68-.39 1.47-.41 2.18-.1 1.5.63 2.2 2.41 1.56 3.94-.62 1.48-2.33 2.28-3.82 1.65-.76-.32-1.34-.92-1.53-1.7h-.02l-.32.75-.98-.42zm5.68-.71c.42-1 0-2.21-1.02-2.64-.98-.41-2.15.1-2.58 1.1-.44 1.05 0 2.22 1 2.65.97.41 2.16-.08 2.59-1.11zm.88 3.48l2.23-5.28.92.39-.2.48h.02c.39-.24.89-.3 1.61-.04l-.43 1.02c-.87-.33-1.53 0-1.9.89l-1.25 2.96-.99-.42zm5.46 2.46c-1.49-.63-2.28-2.46-1.65-3.94.68-1.61 2.45-2.27 4.07-1.58 1.46.62 2.35 2.34 1.62 4.01-.62 1.4-2.36 2.23-4.04 1.51zm1.99-4.64c-.99-.42-2.2.06-2.64 1.09-.42 1 .04 2.23 1.04 2.65 1.04.44 2.23-.02 2.68-1.09.44-1.03-.04-2.21-1.08-2.65zm6.62 7.3c-.64.38-1.42.38-2.17.06-1.52-.64-2.27-2.5-1.67-3.93.67-1.59 2.43-2.3 4.02-1.63.69.29 1.29.88 1.51 1.53l.26-.61.99.42-1.94 4.58c-.72 1.71-2.23 2.33-4.02 1.57-1.21-.51-1.89-1.55-1.91-2.77l1.11.47c.15.68.54 1.13 1.19 1.4 1.21.51 2.13.12 2.64-1.09h-.02zm.84-1.94c.52-1.24-.15-2.28-1.07-2.66-.98-.41-2.17.08-2.6 1.11-.43 1.01.05 2.22 1.03 2.64 1.15.49 2.28-.23 2.64-1.09zm5.34 5.37l.35-.82h-.02c-.64.46-1.44.51-2.19.19-1.54-.65-2.31-2.35-1.67-3.87.71-1.69 2.42-2.36 3.98-1.7.77.33 1.3.89 1.46 1.66h.02l.31-.74.99.42-2.23 5.28-.99-.42zm1.13-2.62c.43-1.03.05-2.2-1.04-2.66-.99-.42-2.16.09-2.6 1.13-.42.99.02 2.2 1.02 2.62 1.03.44 2.2-.08 2.62-1.08zm5.5 5.42l.32-.75h-.02c-.65.39-1.47.41-2.24.09-1.53-.65-2.25-2.32-1.6-3.88.68-1.61 2.34-2.36 3.92-1.69.71.3 1.28.84 1.49 1.56h.02l1.02-2.41.99.42-2.98 7.05-.92-.39zm.07-5.29c-1.01-.43-2.16.09-2.6 1.13-.42.99.03 2.2 1.02 2.62 1 .42 2.19-.04 2.61-1.04.46-1.08.09-2.23-1.03-2.7zm3.78 4.31c-.14.97.32 1.83 1.13 2.17.62.26 1.34.18 1.88-.25l.99.42c-.87.91-2.16 1.2-3.29.72-1.49-.63-2.13-2.45-1.54-3.86.7-1.67 2.45-2.3 3.85-1.71 1.55.66 2.23 2.36 1.59 3.87-.07.16-.13.31-.24.48l-4.38-1.85zm3.73.68c.3-.93-.22-1.91-1.06-2.27-.81-.34-1.89-.05-2.35.83l3.41 1.44zM907.85 801.6l-66.65-90-185.5-309.26 1.72-1.03 185.44 309.18 66.6 89.91-1.61 1.2zM498.62 217.93l-74.08-30.06-14.44-11.73 1.26-1.55 14.21 11.54 73.81 29.94-.76 1.86zm-129.26-74.88l-14.29-11.6-13.25 11.58-1.32-1.51 14.53-12.68 15.59 12.66-1.26 1.55zm-89.33 53.93l-11.36-4.04.66-1.88 10.27 3.65 23.01-20.1 1.31 1.51-23.89 20.86z"/></g><circle cx="914" cy="801" r="16" fill="#e7e0d3"/><g fill="#ed6e44"><circle cx="914" cy="801" r="10"/><circle cx="257" cy="187" r="10"/><circle cx="277" cy="157" r="10"/></g><defs ><path id="B" d="M173.22 37.42h2.47v3.77h.02l2.51-3.77h2.9l-2.87 4.03 3.11 4.65h-3l-2.65-4.26h-.02v4.26h-2.47v-8.68z"/><path id="C" d="M181.83 37.42h2.69c1.38 0 2.23.16 2.83.49.62.35 1.04.91 1.04 1.69s-.47 1.34-1.32 1.67v.02c1.21.41 1.68 1.18 1.68 2.14 0 1.01-.52 1.79-1.51 2.23-.66.3-1.54.44-2.59.44h-2.82v-8.68zm3 3.47c.74 0 1.09-.23 1.09-.76 0-.28-.1-.48-.36-.61-.18-.1-.46-.13-.97-.13h-.29v1.5h.53zm-.17 3.25c.71 0 1.07-.06 1.27-.17.24-.13.35-.35.35-.66 0-.59-.41-.84-1.2-.84h-.78v1.67h.36z"/><path id="D" d="M214.85 42.96l-1.33-1.86h-.02l.02 2.22v2.78h-2.37v-8.68h2.31l2.3 3.14 1.33 1.86h.02l-.02-2.22v-2.78h2.37v8.68h-2.31l-2.3-3.14z"/><path id="E" d="M223.91 37.42h2.65l1.2 3.39.72 2.11h.02l.76-2.13 1.24-3.37h2.54l-3.32 8.68h-2.48l-3.32-8.68z"/><path id="F" d="M233.64,37.42h5.66v2.09h-3.19v1.1h2.7v1.97h-2.7v1.44h3.33v2.09h-5.8v-8.68Z"/><path id="G" d="M240.55 37.42h3.03c1.06 0 1.83.13 2.44.43.84.41 1.4 1.14 1.4 2.27 0 1.07-.52 1.88-1.59 2.34l2.3 3.65h-2.79l-1.93-3.3h-.38v3.3h-2.47v-8.68zm3.08 3.69c.46 0 .78-.06.97-.18.23-.13.35-.36.35-.68 0-.37-.17-.6-.42-.72-.2-.1-.49-.14-1.06-.14h-.46v1.73h.61z"/><path id="H" d="M248.56 43.29c1.08.62 2.3.89 2.9.89.5 0 .86-.18.86-.62 0-.62-.7-.62-1.8-1.01-1.32-.46-2.23-1.1-2.23-2.51 0-1.69 1.31-2.76 3.25-2.76.9 0 2.02.23 2.83.64v2.28c-1.04-.59-2.19-.86-2.81-.86-.46 0-.77.14-.77.53 0 .56.67.56 1.73.94 1.36.48 2.3 1.15 2.3 2.61 0 1.75-1.38 2.82-3.39 2.82-.89 0-2-.2-2.88-.62v-2.31z"/><path id="I" d="M342.76 37.42h2.49c1.8 0 3.15.3 4.08 1 .96.72 1.49 1.9 1.49 3.36 0 1.3-.41 2.37-1.24 3.13-.86.78-2.19 1.2-4.28 1.2h-2.54v-8.68zm2.57 6.6c1.57 0 2.21-.31 2.58-.76.32-.4.44-.92.44-1.49 0-.82-.25-1.4-.74-1.77-.53-.4-1.32-.49-2.29-.49h-.08v4.51h.1z"/><path id="J" d="M476.12 28.61c-.8.38-1.87.62-2.91.62-2.95 0-4.92-1.9-4.92-4.43s2.05-4.52 4.87-4.52c1.02 0 1.96.25 2.67.61v2.39c-.77-.47-1.7-.8-2.58-.8-1.55 0-2.49 1.02-2.49 2.33s.92 2.34 2.45 2.34a2.09 2.09 0 0 0 .53-.06v-.92h-1.19v-1.81h3.57v4.26z"/><path id="K" d="M477.41 26.29c1.08.62 2.3.89 2.9.89.5 0 .86-.18.86-.62 0-.62-.7-.62-1.8-1.01-1.32-.46-2.23-1.1-2.23-2.51 0-1.69 1.31-2.76 3.25-2.76.9 0 2.01.23 2.83.64v2.28c-1.04-.59-2.19-.86-2.81-.86-.46 0-.77.14-.77.53 0 .56.67.56 1.73.94 1.36.48 2.3 1.15 2.3 2.61 0 1.75-1.38 2.82-3.39 2.82-.89 0-2-.2-2.88-.62v-2.31z"/><path id="L" d="M518.44 20.28c2.61 0 4.64 1.97 4.64 4.47s-2.03 4.47-4.64 4.47-4.64-1.97-4.64-4.47 2.03-4.47 4.64-4.47zm0 6.73c1.22 0 2.17-1 2.17-2.25s-.95-2.25-2.17-2.25-2.17 1-2.17 2.25.95 2.25 2.17 2.25z"/><path id="M" d="M503.92 92.42h2.43l3.51 8.68h-2.69l-.61-1.77h-2.97l-.64 1.77h-2.55l3.51-8.68zm1.18 2.64l-.54 1.62-.3.83h1.68l-.29-.83-.53-1.62h-.02z"/><path id="N" d="M510.58 101.1v-8.68h2.37l2.24 3.17 2.23-3.17h2.35v8.68h-2.47v-2.83l.02-2.04h-.02l-1.14 1.65-1.03 1.46-1.04-1.46-1.14-1.67h-.02l.02 2.05v2.83h-2.37z"/><path id="O" d="M306.91 153.58l-5.17-7.8h5.61l1.12 1.81 1.56 2.63h.05l1.49-2.56 1.14-1.88h5.4l-5.17 7.8 6.1 9.05h-5.75l-1.86-3-1.58-2.65h-.05l-1.7 2.84-1.75 2.82h-5.52l6.07-9.05z"/><path id="P" d="M340.32 156.53l-2.58-3.61-.05.02.05 4.28v5.4h-4.61v-16.85h4.49l4.47 6.1 2.58 3.61.05-.02-.05-4.28v-5.4h4.61v16.85h-4.49l-4.47-6.1z"/><path id="Q" d="M360.36,145.53c5.07,0,9.01,3.82,9.01,8.68s-3.93,8.68-9.01,8.68-9.01-3.82-9.01-8.68,3.93-8.68,9.01-8.68Zm0,13.05c2.37,0,4.21-1.93,4.21-4.38s-1.84-4.37-4.21-4.37-4.21,1.93-4.21,4.37,1.84,4.38,4.21,4.38Z"/><path id="R" d="M71.27 179h4.84c3.49 0 6.12.58 7.91 1.93 1.86 1.4 2.89 3.68 2.89 6.52 0 2.51-.79 4.61-2.4 6.07-1.68 1.51-4.26 2.33-8.31 2.33h-4.93V179zm4.98 12.8c3.05 0 4.28-.6 5-1.47.63-.77.86-1.79.86-2.89 0-1.58-.49-2.72-1.44-3.44-1.02-.77-2.56-.95-4.44-.95h-.16v8.75h.19z"/><path id="S" d="M139.98 189.75l-2.58-3.61-.05.02.05 4.28v5.4h-4.61v-16.85h4.49l4.47 6.1 2.58 3.61.05-.02-.05-4.28V179h4.61v16.85h-4.49l-4.47-6.1z"/><path id="T" d="M678.81 265.42h3.04c1.05 0 1.83.13 2.43.43.84.41 1.4 1.14 1.4 2.27 0 1.07-.52 1.88-1.6 2.34l2.3 3.65h-2.79l-1.93-3.3h-.38v3.3h-2.47v-8.68zm3.08 3.69c.46 0 .78-.06.97-.18.23-.13.35-.36.35-.68 0-.37-.17-.6-.42-.72-.2-.1-.49-.14-1.06-.14h-.46v1.73h.61z"/><path id="U" d="M712.72 265.42h2.44l3.51 8.68h-2.69l-.61-1.77h-2.97l-.64 1.77h-2.55l3.51-8.68zm1.18 2.64l-.54 1.62-.3.83h1.68l-.29-.83-.53-1.62h-.02z"/><path id="V" d="M735.78 265.42h2.43l3.51 8.68h-2.69l-.61-1.77h-2.97l-.64 1.77h-2.55l3.51-8.68zm1.17 2.64l-.54 1.62-.3.83h1.68l-.29-.83-.53-1.62h-.02z"/><path id="W" d="M984.18 705.85a4.36 4.36 0 0 1-1.26-3.09c0-2.51 2.03-4.47 4.64-4.47.92 0 1.78.25 2.5.68l.71-.84.88.71-.7.83a4.36 4.36 0 0 1 1.26 3.09c0 2.51-2.03 4.47-4.64 4.47a4.81 4.81 0 0 1-2.49-.68l-.71.84-.88-.71.7-.83zm4.37-5.11a2.09 2.09 0 0 0-.98-.24c-1.22 0-2.17 1-2.17 2.25 0 .47.13.9.36 1.26l2.79-3.27zm-1.97 4.03a2.06 2.06 0 0 0 .98.24c1.22 0 2.17-1 2.17-2.25 0-.47-.13-.9-.36-1.26l-2.79 3.27z"/><path id="X" d="M993.25 704.29c1.08.62 2.3.89 2.9.89.5 0 .86-.18.86-.62 0-.62-.7-.62-1.8-1.01-1.32-.46-2.23-1.1-2.23-2.51 0-1.69 1.31-2.76 3.25-2.76.9 0 2.01.23 2.83.64v2.28c-1.04-.59-2.2-.86-2.81-.86-.46 0-.77.14-.77.53 0 .56.67.56 1.73.94 1.36.48 2.3 1.15 2.3 2.61 0 1.75-1.38 2.82-3.39 2.82-.89 0-2-.2-2.88-.62v-2.31z"/><path id="Y" d="M1020.97 707.1v-8.68h2.38l2.24 3.17 2.23-3.17h2.35v8.68h-2.47v-2.83l.02-2.04h-.02l-1.14 1.65-1.03 1.46-1.04-1.46-1.14-1.67h-.02l.02 2.05v2.83h-2.38z"/><path id="Z" d="M610.86 486.93h5.51l7.95 19.64h-6.08l-1.38-4.02h-6.73l-1.44 4.02h-5.78l7.95-19.64zm2.66 5.97l-1.22 3.66-.68 1.87h3.8l-.65-1.87-1.19-3.66h-.05z"/><path id="a" d="M705.84 486.93h6.86c2.39 0 4.15.3 5.51.98 1.9.92 3.17 2.58 3.17 5.13 0 2.42-1.17 4.26-3.61 5.29l5.21 8.25h-6.32l-4.37-7.46h-.87v7.46h-5.59v-19.64zm6.97 8.36c1.03 0 1.76-.14 2.2-.41.51-.3.79-.81.79-1.55 0-.84-.38-1.36-.95-1.63-.46-.22-1.11-.33-2.39-.33h-1.03v3.91h1.38z"/><path id="b" d="M985.12 287.42h3.03c1.06 0 1.84.13 2.44.43.84.41 1.4 1.14 1.4 2.27 0 1.07-.52 1.88-1.59 2.34l2.3 3.65h-2.79l-1.93-3.3h-.38v3.3h-2.47v-8.68zm3.08 3.69c.46 0 .78-.06.97-.18.23-.13.35-.36.35-.68 0-.37-.17-.6-.42-.72-.2-.1-.49-.14-1.06-.14h-.46v1.73h.61z"/><path id="c" d="M652.08 562.5c.98-.09 1.71-.73 1.85-1.6.11-.66-.13-1.34-.68-1.77l.18-1.06c1.09.63 1.67 1.82 1.47 3.03-.26 1.59-1.89 2.64-3.4 2.39-1.79-.3-2.81-1.85-2.56-3.35a2.93 2.93 0 0 1 3.4-2.45l.53.12-.78 4.68zm-.21-3.79c-.97-.08-1.81.65-1.96 1.56-.14.87.4 1.85 1.35 2.09l.61-3.65z"/><path id="d" d="M787.8 600.02c-.68.71-.81 1.67-.35 2.42a1.84 1.84 0 0 0 1.67.89l.56.92c-1.24.24-2.45-.28-3.09-1.33-.84-1.38-.31-3.23 1-4.03 1.54-.95 3.33-.44 4.13.86.88 1.44.44 3.21-.96 4.07-.15.09-.29.18-.47.26l-2.48-4.05zm2.64 2.73c.79-.58.94-1.68.46-2.46-.46-.75-1.51-1.14-2.39-.7l1.93 3.16z"/><path id="e" d="M788.81 606.27l4.89-2.99.52.86-.44.27v.02c.47.02.92.27 1.35.89l-.94.58c-.51-.78-1.25-.89-2.07-.38l-2.74 1.68-.56-.92z"/></defs></svg>