<svg width="152" height="152" viewBox="0 0 152 152" fill="none" xmlns="http://www.w3.org/2000/svg">
<path d="M59.7144 119.429L32.5716 52.3314L5.42871 119.429C5.42871 126.627 8.2884 133.531 13.3787 138.621C18.4689 143.712 25.3728 146.571 32.5716 146.571C39.7703 146.571 46.6742 143.712 51.7645 138.621C56.8547 133.531 59.7144 126.627 59.7144 119.429Z" stroke="black" stroke-width="1.71429" stroke-linecap="round" stroke-linejoin="round"/>
<path d="M146.572 76L119.429 12.8115L92.2861 76C92.2861 83.1988 95.1458 90.1027 100.236 95.1929C105.326 100.283 112.23 103.143 119.429 103.143C126.628 103.143 133.532 100.283 138.622 95.1929C143.712 90.1027 146.572 83.1988 146.572 76V76Z" stroke="black" stroke-width="1.71429" stroke-linecap="round" stroke-linejoin="round"/>
<path d="M16.2861 59.7143L135.715 5.42859" stroke="black" stroke-width="1.71429" stroke-linecap="round" stroke-linejoin="round"/>
<path d="M76 32.5714V5.42859" stroke="black" stroke-width="1.71429" stroke-linecap="round" stroke-linejoin="round"/>
</svg>
