<?xml version="1.0" encoding="UTF-8"?><svg id="Layer_1" xmlns="http://www.w3.org/2000/svg" width="657.85" height="833.62" viewBox="0 0 657.85 833.62"><defs><style>.cls-1{fill:#e7e0d3;}</style></defs><path class="cls-1" d="M307.97,688.78l-75.79,13.21-10.2-55.9,83.88-6.24-22.8-533.18L0,240.75l80.92,275.37-38.82,72.1,23.83,20.42,27.67-49.4,80.62,274.38h139.94l-6.19-144.84ZM165.47,386.55l81.64-122.44,5.79,90.39-87.44,32.05Z"/><path class="cls-1" d="M586.12,433.67l71.72-279.87L374.78,0l-23.25,623.33-1.07,28.52,55.71-50.82,23.97,49.2-81.2,42.01-5.27,141.38h139.95l91.34-356.41,76.36-55.76-13.62-25.53-51.59,37.75Zm-181.22-149.48l5.84-103.62,81.63,140.41-87.46-36.79Z"/></svg>