<?xml version="1.0" encoding="UTF-8"?><svg id="Layer_1" xmlns="http://www.w3.org/2000/svg" width="2023.8" height="833.62" viewBox="0 0 2023.8 833.62"><defs><style>.cls-1{fill:#f0ca99;}</style></defs><g><path class="cls-1" d="M307.97,688.78l-75.79,13.21-10.2-55.9,83.88-6.24-22.8-533.18L0,240.75l80.92,275.37-38.82,72.1,23.83,20.42,27.67-49.4,80.62,274.38h139.94l-6.19-144.84ZM165.47,386.55l81.64-122.44,5.79,90.39-87.44,32.05Z"/><path class="cls-1" d="M586.12,433.67l71.72-279.87L374.78,0l-23.25,623.33-1.07,28.52,55.71-50.82,23.97,49.2-81.2,42.01-5.27,141.38h139.95l91.34-356.41,76.36-55.76-13.62-25.53-51.59,37.75Zm-181.22-149.48l5.84-103.62,81.63,140.41-87.46-36.79Z"/></g><g><path class="cls-1" d="M932.5,446.46l-48.66-137.21h47.07l27.52,91.74h.8l27.72-91.74h45.07l-48.46,137.21h-51.05Z"/><path class="cls-1" d="M1052.37,446.46v-137.21h44.07v137.21h-44.07Z"/><path class="cls-1" d="M1127.95,309.24h44.08v102.11h70.4v35.1h-114.48v-137.21Z"/><path class="cls-1" d="M1392.4,377.85c0,45.74-24,68.6-72,68.6h-59.43v-137.21h59.43c48,0,72,22.87,72,68.61Zm-87.35,35.7h14.56c18.48,0,27.72-9.9,27.72-29.72v-11.97c0-19.81-9.24-29.72-27.72-29.72h-14.56v71.4Z"/><path class="cls-1" d="M1517.04,317.52c11.3,7.11,17.08,17.65,17.35,31.61v2.39h-41.28v-.8c0-3.99-1.46-7.31-4.39-9.97-2.93-2.66-7.38-3.99-13.36-3.99s-10.34,.87-13.46,2.59c-3.13,1.73-4.69,3.86-4.69,6.38,0,3.59,2.12,6.25,6.38,7.98,4.25,1.73,11.1,3.52,20.54,5.38,11.04,2.26,20.11,4.62,27.22,7.08,7.11,2.46,13.33,6.48,18.65,12.07,5.32,5.58,8.04,13.16,8.18,22.74,0,16.22-5.48,28.25-16.45,36.1-10.97,7.85-25.63,11.77-43.98,11.77-21.41,0-38.06-3.59-49.96-10.77-11.9-7.18-17.85-19.88-17.85-38.09h41.68c0,6.91,1.79,11.54,5.38,13.86,3.59,2.33,9.17,3.49,16.75,3.49,5.58,0,10.2-.6,13.86-1.79,3.66-1.2,5.48-3.66,5.48-7.38,0-3.32-2.03-5.81-6.08-7.48-4.06-1.66-10.67-3.42-19.84-5.28-11.17-2.39-20.41-4.89-27.72-7.48-7.31-2.59-13.7-6.88-19.15-12.86-5.45-5.98-8.18-14.09-8.18-24.33,0-15.02,5.81-26.09,17.45-33.21,11.63-7.11,26.36-10.67,44.17-10.67s31.97,3.56,43.28,10.67Z"/><path class="cls-1" d="M1653.05,309.24h54.64l-49.26,56.44,50.26,80.77h-52.05l-28.52-50.26-23.93,19.54v30.71h-44.08v-137.21h44.08v58.63l48.86-58.63Z"/><path class="cls-1" d="M1845.11,434.09c-11.84,9.84-28.65,14.76-50.46,14.76s-38.66-4.92-50.56-14.76c-11.9-9.84-17.85-24.13-17.85-42.88v-81.97h44.08v81.37c0,7.71,2.06,13.86,6.18,18.45,4.12,4.59,10.1,6.88,17.95,6.88s13.86-2.32,18.05-6.98c4.19-4.65,6.28-10.77,6.28-18.35v-81.37h44.07v81.97c0,18.75-5.92,33.04-17.75,42.88Z"/><path class="cls-1" d="M2023.8,377.85c0,45.74-24,68.6-72,68.6h-59.43v-137.21h59.43c48,0,72,22.87,72,68.61Zm-87.35,35.7h14.56c18.48,0,27.72-9.9,27.72-29.72v-11.97c0-19.81-9.24-29.72-27.72-29.72h-14.56v71.4Z"/></g><g><path class="cls-1" d="M896.4,519.78h117.96v35.01h-71.07v25.03h61.1v33.52h-61.1v52.4h-46.89v-145.96Z"/><path class="cls-1" d="M1037.91,519.78h126.23v35.01h-79.35v20.16h67.89v33.52h-67.89v22.28h80.83v35.01h-127.72v-145.96Z"/><path class="cls-1" d="M1298.43,528.58c12.02,7.57,18.17,18.78,18.46,33.63v2.55h-43.92v-.85c0-4.24-1.56-7.78-4.67-10.61-3.11-2.83-7.85-4.24-14.21-4.24s-11,.92-14.32,2.76c-3.32,1.84-4.99,4.1-4.99,6.79,0,3.82,2.26,6.65,6.79,8.49,4.53,1.84,11.81,3.75,21.85,5.73,11.74,2.41,21.39,4.92,28.96,7.53,7.56,2.62,14.18,6.9,19.84,12.84,5.66,5.94,8.56,14,8.7,24.19,0,17.26-5.83,30.06-17.5,38.4-11.67,8.35-27.26,12.52-46.78,12.52-22.77,0-40.49-3.82-53.15-11.46-12.66-7.64-18.99-21.14-18.99-40.52h44.34c0,7.36,1.91,12.27,5.73,14.74,3.82,2.48,9.76,3.71,17.82,3.71,5.94,0,10.85-.64,14.75-1.91,3.89-1.27,5.83-3.89,5.83-7.85,0-3.53-2.16-6.19-6.47-7.96-4.32-1.77-11.35-3.64-21.11-5.62-11.88-2.55-21.71-5.2-29.49-7.96-7.78-2.76-14.57-7.32-20.37-13.68-5.8-6.36-8.7-14.99-8.7-25.88,0-15.98,6.19-27.76,18.56-35.32,12.38-7.57,28.04-11.35,46.99-11.35s34.01,3.79,46.04,11.35Z"/><path class="cls-1" d="M1428.27,557.12v108.62h-46.89v-108.62h-47.95v-37.34h142.57v37.34h-47.74Z"/><path class="cls-1" d="M1499.55,665.74v-145.96h46.89v145.96h-46.89Z"/><path class="cls-1" d="M1619.63,665.74l-51.77-145.96h50.07l29.28,97.59h.85l29.49-97.59h47.95l-51.55,145.96h-54.31Z"/><path class="cls-1" d="M1830.73,665.74l-6.15-20.58h-51.13l-6.15,20.58h-47.95l53.25-145.96h54.53l53.25,145.96h-49.64Zm-47.52-53.25h31.61l-15.28-51.98h-.85l-15.49,51.98Z"/><path class="cls-1" d="M1897.99,519.78h46.89v108.62h74.89v37.34h-121.78v-145.96Z"/></g></svg>