<?xml version="1.0" encoding="UTF-8"?><svg id="Layer_1" xmlns="http://www.w3.org/2000/svg" width="839.01" height="1217.77" viewBox="0 0 839.01 1217.77"><defs><style>.cls-1{fill:#f0ca99;}</style></defs><g><path class="cls-1" d="M401.42,688.78l-75.79,13.21-10.2-55.9,83.88-6.24-22.8-533.18L93.45,240.75l80.92,275.37-38.82,72.1,23.83,20.42,27.67-49.4,80.62,274.38h139.94l-6.19-144.84Zm-142.5-302.23l81.64-122.44,5.79,90.39-87.44,32.05Z"/><path class="cls-1" d="M679.57,433.67l71.72-279.87L468.23,0l-23.25,623.33-1.07,28.52,55.71-50.82,23.97,49.2-81.2,42.01-5.27,141.38h139.95l91.34-356.41,76.36-55.76-13.62-25.53-51.59,37.75Zm-181.22-149.48l5.84-103.62,81.63,140.41-87.46-36.79Z"/></g><g><path class="cls-1" d="M37.61,1056.79L1.89,956.06H36.44l20.2,67.35h.59l20.35-67.35h33.09l-35.58,100.73H37.61Z"/><path class="cls-1" d="M125.6,1056.79v-100.73h32.36v100.73h-32.36Z"/><path class="cls-1" d="M181.09,956.06h32.36v74.96h51.68v25.77h-84.04v-100.73Z"/><path class="cls-1" d="M375.23,1006.42c0,33.58-17.62,50.37-52.85,50.37h-43.63v-100.73h43.63c35.23,0,52.85,16.79,52.85,50.36Zm-64.13,26.21h10.69c13.57,0,20.35-7.27,20.35-21.82v-8.78c0-14.54-6.79-21.81-20.35-21.81h-10.69v52.41Z"/><path class="cls-1" d="M466.74,962.13c8.29,5.22,12.54,12.96,12.74,23.21v1.76h-30.31v-.59c0-2.93-1.08-5.37-3.22-7.32-2.15-1.95-5.42-2.93-9.81-2.93s-7.59,.64-9.88,1.9c-2.29,1.27-3.44,2.83-3.44,4.69,0,2.64,1.56,4.59,4.68,5.86,3.12,1.27,8.15,2.59,15.08,3.95,8.1,1.66,14.76,3.39,19.99,5.2,5.22,1.81,9.78,4.76,13.69,8.86,3.9,4.1,5.9,9.66,6,16.69,0,11.91-4.03,20.74-12.08,26.5-8.05,5.76-18.81,8.64-32.28,8.64-15.72,0-27.94-2.64-36.68-7.91-8.74-5.27-13.1-14.59-13.1-27.96h30.6c0,5.08,1.32,8.47,3.95,10.18,2.63,1.71,6.73,2.56,12.3,2.56,4.1,0,7.49-.44,10.18-1.32,2.68-.88,4.03-2.68,4.03-5.42,0-2.44-1.49-4.27-4.47-5.49-2.98-1.22-7.83-2.51-14.57-3.88-8.2-1.76-14.98-3.59-20.35-5.49-5.37-1.9-10.05-5.05-14.05-9.44-4-4.39-6-10.34-6-17.86,0-11.03,4.27-19.15,12.81-24.38,8.54-5.22,19.35-7.83,32.43-7.83s23.47,2.61,31.77,7.83Z"/><path class="cls-1" d="M566.59,956.06h40.12l-36.16,41.43,36.9,59.3h-38.21l-20.94-36.9-17.57,14.35v22.55h-32.36v-100.73h32.36v43.04l35.87-43.04Z"/><path class="cls-1" d="M707.58,1047.71c-8.69,7.22-21.04,10.83-37.04,10.83s-28.38-3.61-37.11-10.83c-8.74-7.22-13.1-17.72-13.1-31.48v-60.17h32.36v59.74c0,5.66,1.51,10.18,4.54,13.54,3.02,3.37,7.42,5.05,13.18,5.05s10.18-1.71,13.25-5.12c3.07-3.42,4.61-7.91,4.61-13.47v-59.74h32.36v60.17c0,13.76-4.34,24.26-13.03,31.48Z"/><path class="cls-1" d="M838.76,1006.42c0,33.58-17.62,50.37-52.85,50.37h-43.63v-100.73h43.63c35.23,0,52.85,16.79,52.85,50.36Zm-64.13,26.21h10.69c13.57,0,20.35-7.27,20.35-21.82v-8.78c0-14.54-6.79-21.81-20.35-21.81h-10.69v52.41Z"/></g><g><path class="cls-1" d="M0,1108.56H88.1v26.14H35.02v18.7h45.63v25.04H35.02v39.14H0v-109.01Z"/><path class="cls-1" d="M105.69,1108.56h94.28v26.14h-59.26v15.05h50.71v25.04h-50.71v16.64h60.37v26.14H105.69v-109.01Z"/><path class="cls-1" d="M300.26,1115.14c8.98,5.65,13.57,14.02,13.79,25.11v1.9h-32.8v-.63c0-3.17-1.16-5.81-3.49-7.92-2.32-2.11-5.86-3.17-10.62-3.17s-8.21,.69-10.7,2.06c-2.48,1.37-3.72,3.07-3.72,5.07,0,2.85,1.69,4.97,5.07,6.34,3.38,1.37,8.82,2.8,16.32,4.28,8.77,1.8,15.98,3.67,21.63,5.62,5.65,1.96,10.59,5.15,14.82,9.59,4.22,4.44,6.39,10.46,6.5,18.06,0,12.89-4.36,22.45-13.07,28.68-8.71,6.23-20.36,9.35-34.94,9.35-17.01,0-30.24-2.85-39.69-8.56-9.46-5.7-14.18-15.79-14.18-30.26h33.12c0,5.49,1.43,9.17,4.28,11.01,2.85,1.85,7.29,2.77,13.31,2.77,4.44,0,8.11-.48,11.01-1.43,2.9-.95,4.36-2.9,4.36-5.86,0-2.64-1.61-4.62-4.83-5.94-3.22-1.32-8.48-2.72-15.77-4.2-8.87-1.9-16.22-3.88-22.03-5.94-5.81-2.06-10.88-5.47-15.21-10.22-4.33-4.75-6.5-11.2-6.5-19.33,0-11.94,4.62-20.73,13.86-26.38,9.24-5.65,20.94-8.48,35.1-8.48s25.4,2.83,34.38,8.48Z"/><path class="cls-1" d="M397.23,1136.45v81.13h-35.02v-81.13h-35.81v-27.89h106.48v27.89h-35.65Z"/><path class="cls-1" d="M450.47,1217.58v-109.01h35.02v109.01h-35.02Z"/><path class="cls-1" d="M540.15,1217.58l-38.66-109.01h37.4l21.87,72.89h.63l22.02-72.89h35.81l-38.5,109.01h-40.56Z"/><path class="cls-1" d="M697.81,1217.58l-4.6-15.37h-38.19l-4.6,15.37h-35.81l39.77-109.01h40.72l39.77,109.01h-37.08Zm-35.49-39.77h23.61l-11.41-38.82h-.63l-11.57,38.82Z"/><path class="cls-1" d="M748.04,1108.56h35.02v81.13h55.93v27.89h-90.95v-109.01Z"/></g></svg>