<svg width="152" height="152" viewBox="0 0 152 152" fill="none" xmlns="http://www.w3.org/2000/svg">
<path d="M43.4287 86.8572C43.4287 86.8572 48.8573 103.143 76.0001 103.143C103.143 103.143 108.572 86.8572 108.572 86.8572" stroke="black" stroke-width="1.71429" stroke-linecap="round" stroke-linejoin="round"/>
<path d="M146.572 76C146.572 94.7167 139.136 112.667 125.902 125.902C112.667 139.136 94.7169 146.571 76.0001 146.571C57.2834 146.571 39.3333 139.136 26.0986 125.902C12.8639 112.667 5.42871 94.7167 5.42871 76V5.42859H146.572V76Z" stroke="black" stroke-width="1.71429" stroke-linecap="round" stroke-linejoin="round"/>
<path d="M54.2856 54.2857C54.2856 51.4062 53.1417 48.6447 51.1056 46.6086C49.0695 44.5725 46.3079 43.4286 43.4284 43.4286C40.5489 43.4286 37.7874 44.5725 35.7513 46.6086C33.7152 48.6447 32.5713 51.4062 32.5713 54.2857" stroke="black" stroke-width="1.71429" stroke-linecap="round" stroke-linejoin="round"/>
<path d="M119.429 54.2857C119.429 51.4062 118.285 48.6447 116.249 46.6086C114.213 44.5725 111.451 43.4286 108.572 43.4286C105.692 43.4286 102.931 44.5725 100.895 46.6086C98.8587 48.6447 97.7148 51.4062 97.7148 54.2857" stroke="black" stroke-width="1.71429" stroke-linecap="round" stroke-linejoin="round"/>
</svg>
