<svg width="152" height="152" viewBox="0 0 152 152" fill="none" xmlns="http://www.w3.org/2000/svg">
<path d="M135.715 103.143C135.715 70.5715 109.006 48.8572 76.0004 48.8572C42.9947 48.8572 16.2861 70.5715 16.2861 103.143V146.571H135.715V103.143Z" stroke="black" stroke-width="1.71429" stroke-linecap="round" stroke-linejoin="round"/>
<path d="M76 48.8572V5.42859" stroke="black" stroke-width="1.71429" stroke-linecap="round" stroke-linejoin="round"/>
<path d="M16.2861 114H135.715" stroke="black" stroke-width="1.71429" stroke-linecap="round" stroke-linejoin="round"/>
<path d="M54.2861 114V146.571" stroke="black" stroke-width="1.71429" stroke-linecap="round" stroke-linejoin="round"/>
<path d="M97.7148 114V146.571" stroke="black" stroke-width="1.71429" stroke-linecap="round" stroke-linejoin="round"/>
<path d="M54.286 92.2857C57.2841 92.2857 59.7146 89.8553 59.7146 86.8572C59.7146 83.859 57.2841 81.4286 54.286 81.4286C51.2879 81.4286 48.8574 83.859 48.8574 86.8572C48.8574 89.8553 51.2879 92.2857 54.286 92.2857Z" stroke="black" stroke-width="1.71429" stroke-linecap="round" stroke-linejoin="round"/>
<path d="M97.7147 92.2857C100.713 92.2857 103.143 89.8553 103.143 86.8572C103.143 83.859 100.713 81.4286 97.7147 81.4286C94.7166 81.4286 92.2861 83.859 92.2861 86.8572C92.2861 89.8553 94.7166 92.2857 97.7147 92.2857Z" stroke="black" stroke-width="1.71429" stroke-linecap="round" stroke-linejoin="round"/>
</svg>
