<svg width="152" height="152" viewBox="0 0 152 152" fill="none" xmlns="http://www.w3.org/2000/svg">
<path d="M76.0001 146.571C114.976 146.571 146.572 114.976 146.572 76C146.572 37.0245 114.976 5.42859 76.0001 5.42859C37.0246 5.42859 5.42871 37.0245 5.42871 76C5.42871 114.976 37.0246 146.571 76.0001 146.571Z" stroke="black" stroke-width="1.71429" stroke-linecap="round" stroke-linejoin="round"/>
<path d="M40.1719 86.8572C45.6004 106.4 67.3147 118.343 86.8576 112.914C98.8005 108.571 108.572 98.8 111.829 86.8572" stroke="black" stroke-width="1.71429" stroke-linecap="round" stroke-linejoin="round"/>
<path d="M52.1147 59.1714C50.6156 59.1714 49.4004 57.9562 49.4004 56.4571C49.4004 54.9581 50.6156 53.7429 52.1147 53.7429" stroke="black" stroke-width="1.71429" stroke-linecap="round" stroke-linejoin="round"/>
<path d="M52.1143 59.1714C53.6133 59.1714 54.8285 57.9562 54.8285 56.4571C54.8285 54.9581 53.6133 53.7429 52.1143 53.7429" stroke="black" stroke-width="1.71429" stroke-linecap="round" stroke-linejoin="round"/>
<path d="M99.8862 59.1714C98.3871 59.1714 97.1719 57.9562 97.1719 56.4571C97.1719 54.9581 98.3871 53.7429 99.8862 53.7429" stroke="black" stroke-width="1.71429" stroke-linecap="round" stroke-linejoin="round"/>
<path d="M99.8857 59.1714C101.385 59.1714 102.6 57.9562 102.6 56.4571C102.6 54.9581 101.385 53.7429 99.8857 53.7429" stroke="black" stroke-width="1.71429" stroke-linecap="round" stroke-linejoin="round"/>
</svg>
